<?xml version="1.0" encoding="UTF-8"?>
<svg version="1.1" xmlns="http://www.w3.org/2000/svg" width="498" height="501">
<path d="M0 0 C0.75684082 0.01256836 1.51368164 0.02513672 2.29345703 0.03808594 C15.69124872 0.34550424 28.84164712 2.59091297 42 5 C42.78375 5.14276367 43.5675 5.28552734 44.375 5.43261719 C72.94276608 10.85471617 103.03165532 23.49477703 126.296875 41.01171875 C129.0897738 43.06603304 131.95871969 44.93829368 134.875 46.8125 C142.78617626 52.02456907 150.42726567 58.15434937 157 65 C155.67390094 69.02689767 154.18261692 71.05594067 150.9375 73.75 C145.85549662 78.15786007 141.06838813 82.8050639 136.3125 87.5625 C135.6002124 88.27051758 134.8879248 88.97853516 134.15405273 89.70800781 C130.79836558 93.07187482 127.55869202 96.46937894 124.48046875 100.08984375 C122.25208791 102.67967664 119.97284002 104.97006833 117.36279297 107.17236328 C112.5994455 111.29025777 108.16002957 115.69607247 103.71484375 120.15234375 C102.424963 121.44078941 102.424963 121.44078941 101.10902405 122.75526428 C99.30184139 124.56177015 97.49590608 126.36952462 95.69116211 128.1784668 C92.94561607 130.9293681 90.19477454 133.67489221 87.44335938 136.41992188 C85.6793668 138.18457532 83.9156845 139.94953897 82.15234375 141.71484375 C81.33861801 142.52654526 80.52489227 143.33824677 79.68650818 144.17454529 C76.18007371 147.69525107 72.76353864 151.22407719 69.55297852 155.01782227 C67.0749257 157.89628578 64.47485172 160.43287885 61.62207031 162.93994141 C54.57456263 169.16116785 48.03435037 175.88793253 41.42159271 182.56437302 C39.00276452 185.00545379 36.5797937 187.44235171 34.15557861 189.87808228 C27.27061144 196.79644385 20.39001491 203.71910835 13.51953125 210.65185547 C9.29991082 214.90912516 5.0730068 219.15904529 0.84134674 223.40434647 C-0.76417048 225.01790583 -2.36690856 226.63423554 -3.96677399 228.2533989 C-6.19918485 230.51229643 -8.44073681 232.76173402 -10.68457031 235.00927734 C-11.33924286 235.67630676 -11.99391541 236.34333618 -12.66842651 237.03057861 C-17.00715985 241.35045744 -21.52525558 245.42401095 -28 245.4375 C-28.61875 245.45683594 -29.2375 245.47617188 -29.875 245.49609375 C-35.47677111 244.18832733 -39.65516939 239.57611614 -43.5546875 235.60546875 C-44.0599295 235.09502518 -44.56517151 234.5845816 -45.08572388 234.05867004 C-46.68704911 232.4396937 -48.28148577 230.81416204 -49.875 229.1875 C-51.97308359 227.05253478 -54.07443863 224.92086895 -56.1796875 222.79296875 C-56.68805145 222.2790155 -57.19641541 221.76506226 -57.72018433 221.23553467 C-61.06816897 217.87411417 -64.527056 214.71414195 -68.13623047 211.63891602 C-71.63672921 208.56073314 -74.8620214 205.20084909 -78.125 201.875 C-83.54164808 196.3233759 -83.54164808 196.3233759 -89.3515625 191.1953125 C-92 189 -92 189 -94.25 186 C-98.81853097 180.28196769 -107.0413254 177.41750779 -114 176 C-125.34196417 175.26826038 -135.84086116 178.54915223 -144.6875 185.8125 C-148.44913701 189.25625219 -151.71110757 193.11243821 -155 197 C-155.53882813 197.58910156 -156.07765625 198.17820313 -156.6328125 198.78515625 C-161.17196382 203.79190858 -164.3258918 208.69074158 -165.6875 215.375 C-164.07183372 223.89396767 -157.20935182 230.05257056 -151.171875 235.8671875 C-149.24572407 237.75869542 -147.49105768 239.69003571 -145.75 241.75 C-142.02878063 246.09721889 -137.97204493 250.0846465 -133.88183594 254.08105469 C-130.9764641 256.94033765 -128.22347521 259.86092717 -125.5703125 262.95703125 C-122.08330429 266.99051089 -118.30623444 270.59263305 -114.375 274.1875 C-109.15092262 279.02812535 -103.97937433 283.90684979 -98.9375 288.9375 C-98.43847168 289.43209717 -97.93944336 289.92669434 -97.42529297 290.4362793 C-94.78967732 293.08202854 -92.28852127 295.79948124 -89.85546875 298.6328125 C-85.42052934 303.74341332 -80.69628818 308.56225346 -75.93212891 313.36303711 C-74.90023998 314.40641304 -73.87282163 315.45423076 -72.85009766 316.5065918 C-62.93123561 326.71099201 -51.08997412 338.64864865 -36.125 339.4375 C-24.90526359 338.99349217 -14.22910249 332.2329715 -6.42773438 324.42675781 C-3.28090175 321.01002531 -0.35514348 317.42220399 2.54589844 313.79638672 C4.42982414 311.46899832 6.38585975 309.20875148 8.34375 306.94360352 C12.86321361 301.70149651 17.01790262 296.28238006 21.0234375 290.63671875 C23.76739902 286.97629578 26.80898657 283.63709718 29.921875 280.2890625 C32.08014597 277.97490867 32.08014597 277.97490867 34.140625 275.2109375 C35.06101562 274.11652344 35.06101562 274.11652344 36 273 C36.66 273 37.32 273 38 273 C38.23460937 272.44570313 38.46921875 271.89140625 38.7109375 271.3203125 C40.32454292 268.41582275 42.34723795 266.29379995 44.625 263.875 C47.89753163 260.35726427 51.03719455 256.78513513 54 253 C56.83375093 249.38511451 59.80982255 245.9888195 62.9375 242.625 C66.30363443 238.97238605 69.37916195 235.25782086 72.3125 231.25 C76.3453076 225.74682361 80.70914622 220.62167949 85.20458984 215.49267578 C89.0845255 211.065091 92.86110385 206.57163231 96.56640625 201.99609375 C98.45904684 199.66598888 100.36288764 197.34725118 102.27734375 195.03515625 C107.89221114 188.25164975 113.4705283 181.4528366 118.875 174.5 C123.04785803 169.13758399 127.41868836 164.01668467 132 159 C140.48567681 149.59695272 148.35568434 139.63645282 156.1875 129.6875 C159.0296428 126.11228865 162.03156205 122.73503439 165.125 119.375 C169.59708699 114.51254708 173.71476064 109.54487432 177.296875 103.98828125 C180.48735193 99.1336358 180.48735193 99.1336358 183.65234375 98.30859375 C184.81443359 98.15583984 184.81443359 98.15583984 186 98 C213.97528103 129.80429995 228.25609441 175.63784794 233 217 C233.0935376 217.81073975 233.1870752 218.62147949 233.28344727 219.45678711 C239.09989557 275.75225844 224.83468347 334.64515274 192 381 C191.34 381.99 190.68 382.98 190 384 C189.34 384 188.68 384 188 384 C187.57847656 384.87011719 187.57847656 384.87011719 187.1484375 385.7578125 C175.72300526 408.06460878 153.749031 426.76592188 133.7109375 441.05078125 C131.98688422 442.29041034 130.2810945 443.55615653 128.6015625 444.85546875 C103.04794844 464.40358045 71.2956946 477.27036512 40 484 C38.93724854 484.23178955 38.93724854 484.23178955 37.85302734 484.46826172 C-21.6655102 497.00961746 -86.81044294 484.7638075 -138.07128906 452.25878906 C-143.52368812 448.70023595 -148.76400518 444.8664828 -154 441 C-155.46566406 439.96552734 -155.46566406 439.96552734 -156.9609375 438.91015625 C-162.53247645 434.96950195 -167.66512902 430.76980221 -172.67578125 426.13671875 C-174.69869426 424.27699872 -176.76659885 422.51062364 -178.875 420.75 C-188.5102619 412.32157899 -196.59542928 402.39515462 -204 392 C-204.59167969 391.18144531 -205.18335938 390.36289062 -205.79296875 389.51953125 C-207.56382082 387.0354756 -209.2880685 384.52500572 -211 382 C-211.66386719 381.03449219 -212.32773438 380.06898438 -213.01171875 379.07421875 C-228.55221914 355.77741834 -240.78667569 329.36147808 -247 302 C-247.32242676 300.58533447 -247.32242676 300.58533447 -247.65136719 299.14208984 C-260.85610049 239.96567093 -252.91770738 179.45708158 -224 126 C-223.68885254 125.41250977 -223.37770508 124.82501953 -223.05712891 124.21972656 C-218.21379251 115.11435436 -212.48965362 106.91479971 -206.27685547 98.70605469 C-204.48948291 96.31787888 -202.78165911 93.87506032 -201.0625 91.4375 C-193.11488473 80.53791335 -184.29705019 70.7346365 -174 62 C-173.12859375 61.25363281 -172.2571875 60.50726563 -171.359375 59.73828125 C-164.82280334 54.26246903 -157.98165245 49.30663551 -150.99609375 44.42724609 C-149.4934346 43.3528154 -148.00945572 42.25218617 -146.53515625 41.13916016 C-139.98423567 36.22714457 -133.29425985 32.20697527 -126 28.5 C-124.91130615 27.94175537 -123.8226123 27.38351074 -122.70092773 26.80834961 C-113.31853787 22.05421101 -103.8370954 17.72390375 -94 14 C-93.2786084 13.72607422 -92.5572168 13.45214844 -91.81396484 13.16992188 C-74.21358564 6.61763897 -55.68028062 2.74620014 -37 1 C-35.9171875 0.88914062 -34.834375 0.77828125 -33.71875 0.6640625 C-22.50528575 -0.3237903 -11.24573104 -0.18927461 0 0 Z " fill="#1765B4" transform="translate(259,6)"/>
<path d="M0 0 C14.48588345 5.91639562 25.39714566 38.65183828 31.1328125 51.87109375 C40.08771823 73.26901697 45.49219904 95.84756317 48.1328125 118.87109375 C48.2263501 119.6818335 48.3198877 120.49257324 48.41625977 121.32788086 C54.23270807 177.62335219 39.96749597 236.51624649 7.1328125 282.87109375 C6.4728125 283.86109375 5.8128125 284.85109375 5.1328125 285.87109375 C4.4728125 285.87109375 3.8128125 285.87109375 3.1328125 285.87109375 C2.71128906 286.74121094 2.71128906 286.74121094 2.28125 287.62890625 C-9.14418224 309.93570253 -31.1181565 328.63701563 -51.15625 342.921875 C-52.88030328 344.16150409 -54.586093 345.42725028 -56.265625 346.7265625 C-81.81923906 366.2746742 -113.5714929 379.14145887 -144.8671875 385.87109375 C-145.92993896 386.1028833 -145.92993896 386.1028833 -147.01416016 386.33935547 C-206.5326977 398.88071121 -271.67763044 386.63490125 -322.93847656 354.12988281 C-327.83225923 350.93591529 -332.56624138 347.53280537 -337.25927734 344.05273438 C-338.8498744 342.88381701 -340.46202366 341.7444129 -342.07421875 340.60546875 C-343.05777344 339.909375 -344.04132813 339.21328125 -345.0546875 338.49609375 C-345.91449219 337.89023437 -346.77429688 337.284375 -347.66015625 336.66015625 C-349.88023639 334.86051607 -351.41237684 333.32905816 -352.8671875 330.87109375 C-352.77628757 325.14439803 -352.07984246 321.97288937 -347.8671875 317.87109375 C-346.06196341 316.54778944 -344.24239771 315.28611012 -342.35546875 314.08203125 C-340.55949291 312.84183024 -340.55949291 312.84183024 -339.8671875 309.87109375 C-338.8771875 309.21109375 -337.8871875 308.55109375 -336.8671875 307.87109375 C-336.5990625 307.10796875 -336.3309375 306.34484375 -336.0546875 305.55859375 C-334.4492348 301.9252008 -331.94585527 300.32146197 -328.8671875 297.87109375 C-327.86144972 296.54208311 -326.85923342 295.21035574 -325.8671875 293.87109375 C-325.2071875 293.87109375 -324.5471875 293.87109375 -323.8671875 293.87109375 C-323.5784375 293.25234375 -323.2896875 292.63359375 -322.9921875 291.99609375 C-321.8671875 289.87109375 -321.8671875 289.87109375 -319.8671875 287.87109375 C-319.70037641 284.78761549 -319.70037641 284.78761549 -319.8671875 281.87109375 C-319.1040625 281.72671875 -318.3409375 281.58234375 -317.5546875 281.43359375 C-314.78545842 280.90783435 -314.78545842 280.90783435 -311.8671875 279.87109375 C-310.65836654 277.87092909 -310.65836654 277.87092909 -309.8671875 275.87109375 C-309.2071875 275.87109375 -308.5471875 275.87109375 -307.8671875 275.87109375 C-307.46113281 275.00484375 -307.46113281 275.00484375 -307.046875 274.12109375 C-304.30092114 268.88377777 -300.3582074 263.72053938 -295.8671875 259.87109375 C-295.2071875 259.87109375 -294.5471875 259.87109375 -293.8671875 259.87109375 C-293.526875 259.00484375 -293.526875 259.00484375 -293.1796875 258.12109375 C-291.51992405 255.27578497 -289.44652083 253.93456041 -286.8671875 251.87109375 C-283.29870439 248.14879672 -280.0104989 244.60116029 -277.8671875 239.87109375 C-277.2071875 239.87109375 -276.5471875 239.87109375 -275.8671875 239.87109375 C-275.7021875 239.19046875 -275.5371875 238.50984375 -275.3671875 237.80859375 C-273.52397034 234.19896014 -271.19536096 232.41191349 -268.109375 229.8515625 C-264.33823052 226.52060387 -261.12678622 222.69418692 -257.8671875 218.87109375 C-256.8978125 219.69609375 -255.9284375 220.52109375 -254.9296875 221.37109375 C-254.28515625 221.91894531 -253.640625 222.46679688 -252.9765625 223.03125 C-251.56638496 224.26123819 -250.18057149 225.51971002 -248.8203125 226.8046875 C-240.04569411 235.01888318 -230.83852237 241.35170473 -218.56640625 241.13671875 C-204.94381407 239.79614528 -193.57386273 229.42567367 -185.25537109 219.3137207 C-184.27397049 218.10102944 -183.29592632 216.88561406 -182.32128906 215.66748047 C-180.43736336 213.34009207 -178.48132775 211.07984523 -176.5234375 208.81469727 C-172.00397389 203.57259026 -167.84928488 198.15347381 -163.84375 192.5078125 C-161.09978848 188.84738953 -158.05820093 185.50819093 -154.9453125 182.16015625 C-152.78704153 179.84600242 -152.78704153 179.84600242 -150.7265625 177.08203125 C-149.80617188 175.98761719 -149.80617188 175.98761719 -148.8671875 174.87109375 C-148.2071875 174.87109375 -147.5471875 174.87109375 -146.8671875 174.87109375 C-146.63257813 174.31679688 -146.39796875 173.7625 -146.15625 173.19140625 C-144.54264458 170.2869165 -142.51994955 168.1648937 -140.2421875 165.74609375 C-136.96965587 162.22835802 -133.82999295 158.65622888 -130.8671875 154.87109375 C-128.03343657 151.25620826 -125.05736495 147.85991325 -121.9296875 144.49609375 C-118.56355307 140.8434798 -115.48802555 137.12891461 -112.5546875 133.12109375 C-108.5218799 127.61791736 -104.15804128 122.49277324 -99.66259766 117.36376953 C-95.782662 112.93618475 -92.00608365 108.44272606 -88.30078125 103.8671875 C-86.40814066 101.53708263 -84.50429986 99.21834493 -82.58984375 96.90625 C-76.97497636 90.1227435 -71.3966592 83.32393035 -65.9921875 76.37109375 C-61.81932947 71.00867774 -57.44849914 65.88777842 -52.8671875 60.87109375 C-44.38151069 51.46804647 -36.51150316 41.50754657 -28.6796875 31.55859375 C-25.8375447 27.9833824 -22.83562545 24.60612814 -19.7421875 21.24609375 C-15.24455688 16.3558675 -11.25955344 11.30303932 -7.46484375 5.859375 C-3.20941535 -0.22157052 -3.20941535 -0.22157052 0 0 Z " fill="#F1BC0D" transform="translate(443.8671875,104.12890625)"/>
<path d="M0 0 C0.99 0 1.98 0 3 0 C4.67440816 1.90108797 6.14755541 3.766566 7.625 5.8125 C8.52326743 7.01932632 9.42303264 8.22503911 10.32421875 9.4296875 C10.77458496 10.03522461 11.22495117 10.64076172 11.68896484 11.26464844 C13.53801316 13.71214107 15.48090447 16.07548378 17.4375 18.4375 C20.76956445 22.47565867 24.02791607 26.5617803 27.25 30.6875 C31.27595755 35.83955975 35.36567011 40.93453121 39.5 46 C44.00763161 51.52337068 48.44842687 57.09184494 52.8359375 62.7109375 C56.33776247 67.18436708 59.90811164 71.59867202 63.5 76 C68.00759973 81.52339685 72.44842642 87.09184436 76.8359375 92.7109375 C80.33776455 97.18436975 83.90822679 101.59857554 87.5 106 C92.94870425 112.67983248 98.30336132 119.42682901 103.60888672 126.22070312 C106.1287776 129.44375766 108.65889317 132.65878237 111.1875 135.875 C112.1185308 137.05986345 113.0495244 138.24475613 113.98046875 139.4296875 C114.64691406 140.27789062 115.31335938 141.12609375 116 142 C112.44207752 145.82543545 108.77986152 148.62527087 104.25 151.25 C103.59370605 151.63422119 102.93741211 152.01844238 102.26123047 152.41430664 C100.18086742 153.62166459 98.09162022 154.812269 96 156 C95.35514648 156.3717334 94.71029297 156.7434668 94.04589844 157.12646484 C74.69352641 168.20386058 53.71415395 176.04562611 32 181 C31.13938965 181.19819336 30.2787793 181.39638672 29.39208984 181.60058594 C-31.34243255 195.13264372 -97.53447393 183.57291229 -150.07128906 150.25878906 C-154.96507173 147.06482154 -159.69905388 143.66171162 -164.39208984 140.18164062 C-165.9826869 139.01272326 -167.59483616 137.87331915 -169.20703125 136.734375 C-170.19058594 136.03828125 -171.17414063 135.3421875 -172.1875 134.625 C-173.04730469 134.01914062 -173.90710938 133.41328125 -174.79296875 132.7890625 C-177.01304889 130.98942232 -178.54518934 129.45796441 -180 127 C-179.90910007 121.27330428 -179.21265496 118.10179562 -175 114 C-173.19477591 112.67669569 -171.37521021 111.41501637 -169.48828125 110.2109375 C-167.69230541 108.97073649 -167.69230541 108.97073649 -167 106 C-165.515 105.01 -165.515 105.01 -164 104 C-163.731875 103.236875 -163.46375 102.47375 -163.1875 101.6875 C-161.5820473 98.05410705 -159.07866777 96.45036822 -156 94 C-154.99426222 92.67098936 -153.99204592 91.33926199 -153 90 C-152.34 90 -151.68 90 -151 90 C-150.71125 89.38125 -150.4225 88.7625 -150.125 88.125 C-149 86 -149 86 -147 84 C-146.83318891 80.91652174 -146.83318891 80.91652174 -147 78 C-146.236875 77.855625 -145.47375 77.71125 -144.6875 77.5625 C-141.91827092 77.0367406 -141.91827092 77.0367406 -139 76 C-137.79117904 73.99983534 -137.79117904 73.99983534 -137 72 C-136.34 72 -135.68 72 -135 72 C-134.72929687 71.4225 -134.45859375 70.845 -134.1796875 70.25 C-131.43373364 65.01268402 -127.4910199 59.84944563 -123 56 C-122.34 56 -121.68 56 -121 56 C-120.773125 55.4225 -120.54625 54.845 -120.3125 54.25 C-118.65273655 51.40469122 -116.57933333 50.06346666 -114 48 C-110.43151689 44.27770297 -107.1433114 40.73006654 -105 36 C-104.34 36 -103.68 36 -103 36 C-102.835 35.319375 -102.67 34.63875 -102.5 33.9375 C-100.65678284 30.32786639 -98.32817346 28.54081974 -95.2421875 25.98046875 C-91.47104302 22.64951012 -88.25959872 18.82309317 -85 15 C-84.030625 15.825 -83.06125 16.65 -82.0625 17.5 C-81.41796875 18.04785156 -80.7734375 18.59570312 -80.109375 19.16015625 C-78.69919746 20.39014444 -77.31338399 21.64861627 -75.953125 22.93359375 C-67.17850661 31.14778943 -57.97133487 37.48061098 -45.69921875 37.265625 C-31.95476559 35.91305942 -20.60903715 25.40305934 -12.18823242 15.25585938 C-9.9455989 12.49314577 -7.75961559 9.69021428 -5.578125 6.87890625 C-4.87171875 5.97011719 -4.1653125 5.06132812 -3.4375 4.125 C-2.83808594 3.32320313 -2.23867188 2.52140625 -1.62109375 1.6953125 C-1.08613281 1.13585937 -0.55117188 0.57640625 0 0 Z " fill="#DB402E" transform="translate(271,308)"/>
<path d="M0 0 C14.48588345 5.91639562 25.39714566 38.65183828 31.1328125 51.87109375 C37.51177537 67.11375087 41.76049759 82.71789678 45.1328125 98.87109375 C45.31215332 99.68094727 45.49149414 100.49080078 45.67626953 101.32519531 C49.59536561 119.43787968 48.1328125 137.17151836 48.1328125 155.87109375 C-9.9471875 155.87109375 -68.0271875 155.87109375 -127.8671875 155.87109375 C-127.3721875 153.89109375 -127.3721875 153.89109375 -126.8671875 151.87109375 C-125.8771875 151.54109375 -124.8871875 151.21109375 -123.8671875 150.87109375 C-122.94450614 149.14143722 -122.94450614 149.14143722 -122.2421875 146.99609375 C-119.61713024 140.68797137 -115.28171813 136.00709297 -110.8671875 130.87109375 C-109.42528063 129.10384688 -107.98776682 127.3330065 -106.5546875 125.55859375 C-103.05325193 121.27498758 -99.47712067 117.06299948 -95.8671875 112.87109375 C-90.76880197 106.94850912 -85.78604883 100.94405685 -80.8671875 94.87109375 C-79.81279475 93.57528095 -78.75808528 92.27972581 -77.703125 90.984375 C-70.71326775 82.39792615 -70.71326775 82.39792615 -63.8046875 73.74609375 C-59.15351915 67.91259058 -54.25711316 62.29003466 -49.38867188 56.63818359 C-43.22304981 49.47727658 -37.14778074 42.28562084 -31.3671875 34.80859375 C-27.36291189 29.63055232 -23.12475002 24.77696224 -18.65380859 19.99902344 C-14.50632114 15.54593165 -10.94001793 10.84716872 -7.46875 5.86328125 C-3.20700673 -0.22140423 -3.20700673 -0.22140423 0 0 Z " fill="#30925A" transform="translate(443.8671875,104.12890625)"/>
<path d="M0 0 C0.33 0 0.66 0 1 0 C1.02495763 4.65901308 1.04298042 9.31798614 1.05493164 13.97705078 C1.05992073 15.55778686 1.06671438 17.13851841 1.07543945 18.71923828 C1.1211381 27.21918732 1.07516124 35.55109515 0 44 C-0.33 44 -0.66 44 -1 44 C-1 38.72 -1 33.44 -1 28 C-23.95716614 27.9454012 -46.9139153 27.93305351 -69.87111759 27.97665405 C-80.53066737 27.99583591 -91.1898332 28.00010665 -101.84936523 27.96923828 C-111.14059795 27.94237016 -120.43133332 27.94351625 -129.72254747 27.97825909 C-134.64207981 27.9956776 -139.56072127 27.99909692 -144.48021126 27.96896362 C-149.11242673 27.94103271 -153.74306253 27.95060847 -158.37519073 27.98873711 C-160.07349502 27.996145 -161.77192269 27.98994376 -163.47011375 27.96898079 C-172.44372141 27.56241784 -172.44372141 27.56241784 -180.46236992 30.8125 C-182.34020559 32.92214499 -182.34020559 32.92214499 -183.67728329 35.1875 C-185.3098646 37.42460308 -186.35397945 37.49835946 -189 38 C-190.10827052 39.79290316 -190.10827052 39.79290316 -191 42 C-192.12174481 43.66234472 -193.26949964 45.30732315 -194.4375 46.9375 C-196.24884514 49.46868856 -197.95926208 51.92673658 -199.47265625 54.6484375 C-201.11300684 57.17399007 -202.40939024 58.21065618 -205 59.6875 C-205.680625 60.08324219 -206.36125 60.47898437 -207.0625 60.88671875 C-207.701875 61.25410156 -208.34125 61.62148438 -209 62 C-209.99 62.66 -210.98 63.32 -212 64 C-210.4563893 60.40654069 -208.27381666 57.91811796 -205.625 55.0625 C-203.24884413 52.49164239 -200.96989528 49.96082039 -198.8359375 47.18359375 C-198.23007812 46.46300781 -197.62421875 45.74242187 -197 45 C-196.34 45 -195.68 45 -195 45 C-194.76539063 44.44570313 -194.53078125 43.89140625 -194.2890625 43.3203125 C-192.67545708 40.41582275 -190.65276205 38.29379995 -188.375 35.875 C-184.29549994 31.47761682 -180.51360539 26.96693812 -176.88671875 22.19140625 C-174.80523448 19.77378166 -172.54060843 17.91966799 -170 16 C-170.66 17.98 -171.32 19.96 -172 22 C-172.99 22 -173.98 22 -175 22 C-175 22.99 -175 23.98 -175 25 C-88.375 25.495 -88.375 25.495 0 26 C0 17.42 0 8.84 0 0 Z " fill="#E8CE43" transform="translate(492,234)"/>
<path d="M0 0 C0.33 0.66 0.66 1.32 1 2 C0.0625 4.125 0.0625 4.125 -1 6 C-1.99 6 -2.98 6 -4 6 C-4 6.99 -4 7.98 -4 9 C82.625 9.495 82.625 9.495 171 10 C171 10.33 171 10.66 171 11 C112.26 11 53.52 11 -7 11 C-5.78448697 4.92243483 -4.38840836 4.0149268 0 0 Z " fill="#A9AF2B" transform="translate(321,250)"/>
<path d="M0 0 C-1.32 0.33 -2.64 0.66 -4 1 C-3.9175 1.7425 -3.835 2.485 -3.75 3.25 C-4 6 -4 6 -5.875 8.25 C-8 10 -8 10 -10 11 C-9.67 11.99 -9.34 12.98 -9 14 C-9.74765625 14.59167969 -10.4953125 15.18335937 -11.265625 15.79296875 C-12.25046875 16.58316406 -13.2353125 17.37335938 -14.25 18.1875 C-15.22453125 18.96480469 -16.1990625 19.74210937 -17.203125 20.54296875 C-21.79269226 24.57486512 -25.10352501 29.47929282 -28.6328125 34.42578125 C-29.30957031 35.20501953 -29.30957031 35.20501953 -30 36 C-30.66 36 -31.32 36 -32 36 C-32 36.66 -32 37.32 -32 38 C-32.66 38 -33.32 38 -34 38 C-34.226875 38.804375 -34.45375 39.60875 -34.6875 40.4375 C-35.120625 41.283125 -35.55375 42.12875 -36 43 C-38.625 43.8125 -38.625 43.8125 -41 44 C-34.96658713 35.81832649 -28.76664087 27.85646599 -21.875 20.375 C-17.37736938 15.48477375 -13.39236594 10.43194557 -9.59765625 4.98828125 C-5.04725482 -1.51417645 -5.04725482 -1.51417645 0 0 Z " fill="#409565" transform="translate(446,105)"/>
<path d="M0 0 C2.18913555 3.49415695 2.07063204 5.81947996 1.625 9.86328125 C1.07328011 16.13098146 0.91061237 22.31424261 0.9375 28.60546875 C0.94080322 29.54375519 0.94410645 30.48204163 0.94750977 31.44876099 C0.96106655 34.36171239 0.97965878 37.2745885 1 40.1875 C1.16713533 64.25299804 1.16713533 64.25299804 0 73 C-0.33 73 -0.66 73 -1 73 C-3.88842462 48.24207465 -3.10973623 24.72350578 0 0 Z " fill="#B9D8EF" transform="translate(8,210)"/>
<path d="M0 0 C0.33 0 0.66 0 1 0 C0.67 3.96 0.34 7.92 0 12 C-0.66 12 -1.32 12 -2 12 C-1.938125 12.70125 -1.87625 13.4025 -1.8125 14.125 C-2.04463813 17.68445126 -3.39983571 19.81895051 -5 23 C-7.32495792 29.53393347 -9.35611186 36.07820245 -10 43 C-10.99 43 -11.98 43 -13 43 C-13 45.97 -13 48.94 -13 52 C-13.66 52 -14.32 52 -15 52 C-15 53.98 -15 55.96 -15 58 C-15.33 58 -15.66 58 -16 58 C-16.3269833 51.77010761 -15.14464003 46.27701328 -13.625 40.25 C-13.36895996 39.22390625 -13.11291992 38.1978125 -12.84912109 37.140625 C-9.52743468 24.42691323 -4.79303435 12.22010419 0 0 Z " fill="#5A8DC9" transform="translate(25,152)"/>
<path d="M0 0 C0.66 0.33 1.32 0.66 2 1 C0.38405168 3.04119788 -1.2856382 5.04072937 -3 7 C-3.66 7 -4.32 7 -5 7 C-5 7.66 -5 8.32 -5 9 C-6.22506898 9.65357278 -7.45529516 10.29748233 -8.6875 10.9375 C-9.37199219 11.29714844 -10.05648437 11.65679687 -10.76171875 12.02734375 C-18.80690653 15.52342011 -28.86721244 15.02609302 -37.0625 12.375 C-41.78596345 10.46082677 -43.8190296 8.56965226 -46 4 C-42.95871087 5.10592332 -40.21327296 6.41737594 -37.4375 8.0625 C-31.17275153 11.59354005 -24.46881735 12.14833387 -17.4765625 10.3515625 C-10.94762844 7.94182974 -5.520895 4.1817843 0 0 Z " fill="#DA7771" transform="translate(248,334)"/>
<path d="M0 0 C0.66 0.99 1.32 1.98 2 3 C0.76110404 4.48847937 -0.4915672 5.96550105 -1.75 7.4375 C-2.44609375 8.26121094 -3.1421875 9.08492188 -3.859375 9.93359375 C-6 12 -6 12 -8.140625 12.53515625 C-9.06101562 12.76525391 -9.06101562 12.76525391 -10 13 C-11.10827052 14.79290316 -11.10827052 14.79290316 -12 17 C-13.12174481 18.66234472 -14.26949964 20.30732315 -15.4375 21.9375 C-17.24884514 24.46868856 -18.95926208 26.92673658 -20.47265625 29.6484375 C-22.11300684 32.17399007 -23.40939024 33.21065618 -26 34.6875 C-26.680625 35.08324219 -27.36125 35.47898437 -28.0625 35.88671875 C-28.701875 36.25410156 -29.34125 36.62148438 -30 37 C-30.99 37.66 -31.98 38.32 -33 39 C-31.4563893 35.40654069 -29.27381666 32.91811796 -26.625 30.0625 C-24.24884413 27.49164239 -21.96989528 24.96082039 -19.8359375 22.18359375 C-19.23007812 21.46300781 -18.62421875 20.74242187 -18 20 C-17.34 20 -16.68 20 -16 20 C-15.77054687 19.45214844 -15.54109375 18.90429688 -15.3046875 18.33984375 C-13.62395795 15.32560122 -11.48046682 13.08222044 -9.125 10.5625 C-5.93425561 7.13840266 -2.88007793 3.69051846 0 0 Z " fill="#F6DA7C" transform="translate(313,259)"/>
<path d="M0 0 C0.66 0 1.32 0 2 0 C4.3030887 6.56654456 5.33693273 12.03672362 5 19 C5.66 19 6.32 19 7 19 C7.50812114 21.51943396 8.00664534 24.04016873 8.5 26.5625 C8.64308594 27.26697266 8.78617188 27.97144531 8.93359375 28.69726562 C9.80874925 33.21890238 10.14523405 37.39487028 10 42 C10.66 42 11.32 42 12 42 C12.33 42.99 12.66 43.98 13 45 C12.34 45.99 11.68 46.98 11 48 C7.28502574 37.88914223 4.32197671 27.80323372 2.125 17.25 C1.91012939 16.22712891 1.69525879 15.20425781 1.47387695 14.15039062 C0.51571549 9.37264376 -0.28336162 4.90048913 0 0 Z " fill="#548DC5" transform="translate(8,283)"/>
<path d="M0 0 C0.33 0.66 0.66 1.32 1 2 C0.01 2.8971875 0.01 2.8971875 -1 3.8125 C-3.3373846 5.87501834 -3.3373846 5.87501834 -3 9 C-0.37886292 9 1.50935112 8.68707555 4 8 C4.33 8.99 4.66 9.98 5 11 C4.38125 11.2475 3.7625 11.495 3.125 11.75 C0.62181694 13.22246063 0.16954719 14.41028837 -1 17 C-1.66 17.33 -2.32 17.66 -3 18 C-1.68 18.33 -0.36 18.66 1 19 C0.67 20.32 0.34 21.64 0 23 C-6.60581121 18.13619123 -6.60581121 18.13619123 -8.0625 13.9375 C-7.95891176 9.06885272 -6.75974192 6.81533279 -3.4375 3.25 C-2.633125 2.5075 -1.82875 1.765 -1 1 C-0.67 0.67 -0.34 0.34 0 0 Z " fill="#D84F3F" transform="translate(99,420)"/>
<path d="M0 0 C-0.47539456 4.278551 -3.02565329 6.09647107 -6 9 C-6.53625 9.9075 -7.0725 10.815 -7.625 11.75 C-9 14 -9 14 -12 15 C-12.33 15.99 -12.66 16.98 -13 18 C-13.99 18.33 -14.98 18.66 -16 19 C-16.495 19.845625 -16.99 20.69125 -17.5 21.5625 C-17.995 22.366875 -18.49 23.17125 -19 24 C-19.99 24 -20.98 24 -22 24 C-22.20625 24.721875 -22.4125 25.44375 -22.625 26.1875 C-24.45248163 29.9255306 -26.70438806 31.49246917 -30 34 C-28.84826645 31.53199953 -27.95216435 29.95216435 -26 28 C-25.83318891 24.91652174 -25.83318891 24.91652174 -26 22 C-24.8553125 21.7834375 -24.8553125 21.7834375 -23.6875 21.5625 C-20.91827092 21.0367406 -20.91827092 21.0367406 -18 20 C-16.79117904 17.99983534 -16.79117904 17.99983534 -16 16 C-15.34 16 -14.68 16 -14 16 C-13.59394531 15.13375 -13.59394531 15.13375 -13.1796875 14.25 C-10.85438387 9.81498381 -5.40191724 0 0 0 Z " fill="#A74E53" transform="translate(150,364)"/>
<path d="M0 0 C2.475 1.485 2.475 1.485 5 3 C1.10054658 5.32307863 -3.11485565 6.06447832 -7.5 7 C-8.7055957 7.26055176 -8.7055957 7.26055176 -9.93554688 7.52636719 C-19.68003858 9.60555617 -28.99313178 11.3985036 -39 11 C-39 10.67 -39 10.34 -39 10 C-37.989375 9.87625 -36.97875 9.7525 -35.9375 9.625 C-32.08628274 9.09921013 -32.08628274 9.09921013 -28.78515625 8.05859375 C-24.70886943 6.91857958 -20.66823782 6.14214843 -16.5 5.4375 C-15.41912109 5.24897461 -15.41912109 5.24897461 -14.31640625 5.05664062 C-9.88719883 4.29174133 -5.45240994 3.61513558 -1 3 C-0.67 2.01 -0.34 1.02 0 0 Z " fill="#CE5E56" transform="translate(310,482)"/>
<path d="M0 0 C1.56584311 2.34876467 2.82514963 4.54545647 4.0625 7.0625 C4.40410156 7.75472656 4.74570312 8.44695312 5.09765625 9.16015625 C5.39542969 9.76730469 5.69320312 10.37445313 6 11 C6.33 11.66 6.66 12.32 7 13 C7.99 13.33 8.98 13.66 10 14 C10.66666667 17.33333333 11.33333333 20.66666667 12 24 C12.99 24.33 13.98 24.66 15 25 C15.33 26.65 15.66 28.3 16 30 C15.01 30 14.02 30 13 30 C4.38399603 14.87037212 4.38399603 14.87037212 0.875 8.25 C0.48054688 7.51265625 0.08609375 6.7753125 -0.3203125 6.015625 C-1.13182475 3.60907143 -0.83973926 2.35977361 0 0 Z " fill="#427BB9" transform="translate(29,349)"/>
<path d="M0 0 C1.15450564 3.394344 0.83638395 5.39882763 -0.2578125 8.78125 C-0.55163818 9.70083496 -0.84546387 10.62041992 -1.14819336 11.56787109 C-1.63171265 13.0192749 -1.63171265 13.0192749 -2.125 14.5 C-2.4454126 15.48436035 -2.7658252 16.4687207 -3.09594727 17.48291016 C-5.40470452 24.47429037 -7.93324445 31.30118834 -11 38 C-11.33 38 -11.66 38 -12 38 C-12 35.69 -12 33.38 -12 31 C-11.34 31 -10.68 31 -10 31 C-10 29.02 -10 27.04 -10 25 C-9.34 25 -8.68 25 -8 25 C-8.2475 23.7625 -8.495 22.525 -8.75 21.25 C-9.25463011 17.35121394 -9.25463011 17.35121394 -7.1875 14.5 C-5 13 -5 13 -3 13 C-2.86722656 12.31292969 -2.73445313 11.62585938 -2.59765625 10.91796875 C-2.42105469 10.01691406 -2.24445313 9.11585938 -2.0625 8.1875 C-1.80146484 6.84751953 -1.80146484 6.84751953 -1.53515625 5.48046875 C-1 3 -1 3 0 0 Z " fill="#F0CA59" transform="translate(485,307)"/>
<path d="M0 0 C0 3.11227195 -0.45627049 5.94152152 -1 9 C-0.34 9 0.32 9 1 9 C0.67 10.32 0.34 11.64 0 13 C-1.32 13 -2.64 13 -4 13 C-4.33 12.34 -4.66 11.68 -5 11 C-5.99 10.67 -6.98 10.34 -8 10 C-8 10.66 -8 11.32 -8 12 C-8.66 12 -9.32 12 -10 12 C-10 12.66 -10 13.32 -10 14 C-11.65 14.33 -13.3 14.66 -15 15 C-15 15.66 -15 16.32 -15 17 C-15.66 16.67 -16.32 16.34 -17 16 C-16.278125 15.29875 -15.55625 14.5975 -14.8125 13.875 C-12.89031649 11.96906029 -11.17403537 10.0007592 -9.5 7.875 C-7.11268438 5.12958704 -5.16054807 3.70840436 -2 2 C-1.34 1.34 -0.68 0.68 0 0 Z " fill="#D64231" transform="translate(125,393)"/>
<path d="M0 0 C1.04449911 3.13349732 0.93423645 3.98968256 0 7 C-0.66 7 -1.32 7 -2 7 C-2.268125 7.804375 -2.53625 8.60875 -2.8125 9.4375 C-3.204375 10.283125 -3.59625 11.12875 -4 12 C-4.99 12.33 -5.98 12.66 -7 13 C-7.73323796 15.01508358 -7.73323796 15.01508358 -8 17 C-9.32 17.33 -10.64 17.66 -12 18 C-12.04125 18.61875 -12.0825 19.2375 -12.125 19.875 C-12.41375 20.57625 -12.7025 21.2775 -13 22 C-16.0625 23.25 -16.0625 23.25 -19 24 C-15.46255117 19.1279093 -11.75031089 14.52596144 -7.74609375 10.03125 C-4.9861091 6.82052961 -2.48646747 3.42458524 0 0 Z " fill="#6EAF8B" transform="translate(404,149)"/>
<path d="M0 0 C0.33 1.32 0.66 2.64 1 4 C0.236875 4.33 -0.52625 4.66 -1.3125 5 C-4.98563701 7.73349731 -5.96108665 10.6217223 -7 15 C-7.2535421 18.3347049 -7.2535421 18.3347049 -7 21 C-7.99 21.33 -8.98 21.66 -10 22 C-10 20.68 -10 19.36 -10 18 C-11.32 18 -12.64 18 -14 18 C-13.875 15.8125 -13.875 15.8125 -13 13 C-11.62094309 11.78511653 -10.23077849 10.57828371 -8.765625 9.46875 C-5.44439915 6.70596035 -2.76908737 3.30160417 0 0 Z " fill="#D74033" transform="translate(164,348)"/>
<path d="M0 0 C0.33 0 0.66 0 1 0 C0.7606474 7.06090159 0.7606474 7.06090159 -1.33203125 9.64453125 C-5.30637608 13 -5.30637608 13 -8 13 C-8.061875 13.763125 -8.12375 14.52625 -8.1875 15.3125 C-9 18 -9 18 -11.5 19.6875 C-12.325 20.120625 -13.15 20.55375 -14 21 C-14.33 21.66 -14.66 22.32 -15 23 C-15.66 23 -16.32 23 -17 23 C-17 23.66 -17 24.32 -17 25 C-17.66 24.67 -18.32 24.34 -19 24 C-18.46632813 23.35675781 -17.93265625 22.71351563 -17.3828125 22.05078125 C-12.51728058 16.14985067 -7.78098058 10.18083198 -3.18798828 4.06567383 C-2.14773104 2.69317583 -1.07687599 1.34395833 0 0 Z " fill="#61A67F" transform="translate(373,186)"/>
<path d="M0 0 C31.526794 -0.20638953 31.526794 -0.20638953 44 1 C44 1.33 44 1.66 44 2 C29.23890664 2.84278122 14.75143531 3.06066736 0 2 C0 1.34 0 0.68 0 0 Z " fill="#D3645D" transform="translate(227,492)"/>
<path d="M0 0 C6.46802137 1.90657545 12.15682284 4.46543735 18 7.8125 C18.78165527 8.25319824 19.56331055 8.69389648 20.36865234 9.14794922 C25.73645624 12.20167797 30.98303317 15.39130456 36 19 C35.67 19.66 35.34 20.32 35 21 C33.02 20.01 31.04 19.02 29 18 C29 17.34 29 16.68 29 16 C26.03 15.505 26.03 15.505 23 15 C23 14.01 23 13.02 23 12 C20.36 11.67 17.72 11.34 15 11 C15 10.01 15 9.02 15 8 C12.69 7.34 10.38 6.68 8 6 C8 5.34 8 4.68 8 4 C6.35 4 4.7 4 3 4 C3 3.34 3 2.68 3 2 C2.01 2 1.02 2 0 2 C0 1.34 0 0.68 0 0 Z " fill="#78A1CE" transform="translate(350,28)"/>
<path d="M0 0 C0.33 0 0.66 0 1 0 C2.40470167 14.79664945 3.41700301 29.17891444 2 44 C1.67 44 1.34 44 1 44 C-0.1734927 34.77838022 -0.11370415 25.65164679 -0.0625 16.375 C-0.05747395 14.78255349 -0.052913 13.19010545 -0.04882812 11.59765625 C-0.03791237 7.73173221 -0.02070895 3.86588347 0 0 Z " fill="#76A0CE" transform="translate(6,239)"/>
<path d="M0 0 C0.33 0.66 0.66 1.32 1 2 C-0.73417817 6.81952582 -3.50615088 11.27322761 -7 15 C-7.66 15 -8.32 15 -9 15 C-9 15.66 -9 16.32 -9 17 C-9.66 17 -10.32 17 -11 17 C-11.226875 17.804375 -11.45375 18.60875 -11.6875 19.4375 C-12.120625 20.283125 -12.55375 21.12875 -13 22 C-15.625 22.8125 -15.625 22.8125 -18 23 C-13.48405364 16.87610304 -8.77399769 10.92400928 -4 5 C-2.66609995 3.33378687 -1.33261093 1.66724434 0 0 Z " fill="#5FA57E" transform="translate(423,126)"/>
<path d="M0 0 C-0.33 1.32 -0.66 2.64 -1 4 C-2.65 4 -4.3 4 -6 4 C-6.144375 4.94875 -6.28875 5.8975 -6.4375 6.875 C-8 10 -8 10 -9.890625 10.6328125 C-11.4635902 10.88427292 -13.03791106 11.12735625 -14.61328125 11.36328125 C-18.09149054 12.29118324 -20.0301306 14.31610089 -22.4921875 16.85546875 C-22.98976563 17.23316406 -23.48734375 17.61085938 -24 18 C-24.99 17.67 -25.98 17.34 -27 17 C-21.322827 12.09759414 -15.4210091 7.85507716 -9 4 C-8.3412085 3.60240479 -7.68241699 3.20480957 -7.00366211 2.79516602 C-2.26290776 0 -2.26290776 0 0 0 Z " fill="#4480C3" transform="translate(132,36)"/>
<path d="M0 0 C0.33 0 0.66 0 1 0 C1.25 2.3125 1.25 2.3125 1 5 C-1 6.8125 -1 6.8125 -3 8 C-2.42676569 11.86933162 -0.61046448 14.15222057 2 17 C2.66 17 3.32 17 4 17 C4.33 16.34 4.66 15.68 5 15 C5.66 15 6.32 15 7 15 C7.66 16.65 8.32 18.3 9 20 C8.34 20.33 7.68 20.66 7 21 C6.34 21.99 5.68 22.98 5 24 C3.32731078 22.04653795 1.66178419 20.08770186 0 18.125 C-0.47695313 17.56941406 -0.95390625 17.01382812 -1.4453125 16.44140625 C-5 12.2265625 -5 12.2265625 -5 10 C-5.66 9.67 -6.32 9.34 -7 9 C-5.76302083 7.53515625 -4.52604167 6.0703125 -3.2890625 4.60546875 C-2.10798901 3.1344954 -1.04641471 1.56962206 0 0 Z " fill="#F7B71E" transform="translate(279,298)"/>
<path d="M0 0 C6.85222299 0.29599235 13.39681633 1.39367488 20.0625 2.9375 C20.81265381 3.10733398 21.56280762 3.27716797 22.33569336 3.45214844 C27.75149545 4.75149545 27.75149545 4.75149545 30 7 C27.03 7 24.06 7 21 7 C20.67 6.01 20.34 5.02 20 4 C18.1128125 4.309375 18.1128125 4.309375 16.1875 4.625 C10.56808579 5.27821216 5.47457617 4.23817517 0 3 C0 2.01 0 1.02 0 0 Z " fill="#6899CE" transform="translate(290,10)"/>
<path d="M0 0 C0.33 0.66 0.66 1.32 1 2 C0.0625 4.125 0.0625 4.125 -1 6 C-1.99 6 -2.98 6 -4 6 C-4 6.99 -4 7.98 -4 9 C7.55 9.33 19.1 9.66 31 10 C31 10.33 31 10.66 31 11 C18.46 11 5.92 11 -7 11 C-5.78448697 4.92243483 -4.38840836 4.0149268 0 0 Z " fill="#ABB02D" transform="translate(321,250)"/>
<path d="M0 0 C0 3.59857954 -0.95830515 5.09451118 -3 8 C-3.66 8 -4.32 8 -5 8 C-5.061875 8.556875 -5.12375 9.11375 -5.1875 9.6875 C-6.3480769 12.99068042 -8.40213446 14.71894733 -11 17 C-11.66 17 -12.32 17 -13 17 C-13.33 18.32 -13.66 19.64 -14 21 C-15.32 20.67 -16.64 20.34 -18 20 C-17.43152344 19.3709375 -16.86304688 18.741875 -16.27734375 18.09375 C-11.94791993 13.29452226 -7.64370851 8.47784812 -3.41015625 3.59375 C-2.31584855 2.3569701 -1.16771869 1.16771869 0 0 Z " fill="#7AA4D1" transform="translate(78,74)"/>
<path d="M0 0 C0.66 0.66 1.32 1.32 2 2 C0 3 0 3 -2.5390625 2.22265625 C-3.55742187 1.83980469 -4.57578125 1.45695313 -5.625 1.0625 C-14.65266888 -2.03975482 -21.75616793 -0.9031419 -31 1 C-31 0.01 -31 -0.98 -31 -2 C-20.72974167 -3.98057859 -9.65733064 -4.32914822 0 0 Z " fill="#2D5CA0" transform="translate(157,183)"/>
<path d="M0 0 C0.66 0.33 1.32 0.66 2 1 C-3.24773589 6.56051485 -8.96051288 11.32152406 -15 16 C-15.33 15.01 -15.66 14.02 -16 13 C-15.34 13 -14.68 13 -14 13 C-13.67 11.35 -13.34 9.7 -13 8 C-11.35 7.67 -9.7 7.34 -8 7 C-8 6.34 -8 5.68 -8 5 C-6.68 5 -5.36 5 -4 5 C-4 4.01 -4 3.02 -4 2 C-2.125 0.9375 -2.125 0.9375 0 0 Z " fill="#EEC85F" transform="translate(417,424)"/>
<path d="M0 0 C0.33 0 0.66 0 1 0 C1.11138159 5.45769811 0.91657981 10.61509359 0 16 C-0.99 16 -1.98 16 -3 16 C-3 18.97 -3 21.94 -3 25 C-3.66 25 -4.32 25 -5 25 C-5 26.98 -5 28.96 -5 31 C-5.33 31 -5.66 31 -6 31 C-6.46898898 24.18988925 -4.72644295 18.11442875 -3 11.5625 C-2.71382812 10.44939453 -2.42765625 9.33628906 -2.1328125 8.18945312 C-1.42933339 5.45760926 -0.71821314 2.72800019 0 0 Z " fill="#95BBDF" transform="translate(15,179)"/>
<path d="M0 0 C3.98381075 2.16264012 6.88983545 4.71211176 10 8 C9.34 9.65 8.68 11.3 8 13 C7.01 13 6.02 13 5 13 C4.01 9.7 3.02 6.4 2 3 C1.01 3.33 0.02 3.66 -1 4 C-1.33 3.34 -1.66 2.68 -2 2 C-1.34 2 -0.68 2 0 2 C0 1.34 0 0.68 0 0 Z " fill="#4D81BA" transform="translate(406,63)"/>
<path d="M0 0 C0 0.66 0 1.32 0 2 C-7.8022142 4.48605403 -14.73594051 6.56993514 -23 6 C-19.65836994 3.77224663 -16.45287175 2.87261136 -12.625 1.875 C-11.635 1.60236328 -11.635 1.60236328 -10.625 1.32421875 C-7.00469039 0.36505306 -3.74589021 -0.21694345 0 0 Z " fill="#83ACD8" transform="translate(196,12)"/>
<path d="M0 0 C3.59634744 3.49359465 6.83451967 7.11098131 10 11 C9.67 11.66 9.34 12.32 9 13 C5.44219804 12.39009109 2.3171411 11.4216319 -1 10 C-0.34 9.01 0.32 8.02 1 7 C1 4.57202689 0.49914315 2.37092995 0 0 Z " fill="#CF3F20" transform="translate(377,439)"/>
<path d="M0 0 C0.66 0 1.32 0 2 0 C3.1446875 1.175625 3.1446875 1.175625 4.3125 2.375 C6.93009294 4.93171869 8.6413281 5.78714626 12 7 C12.33 7.66 12.66 8.32 13 9 C13.66 9.33 14.32 9.66 15 10 C13.1875 11.5625 13.1875 11.5625 11 13 C7.25497567 11.75165856 6.23515724 10.13825974 3.8125 7.0625 C3.09707031 6.16660156 2.38164062 5.27070313 1.64453125 4.34765625 C0 2 0 2 0 0 Z " fill="#F5B621" transform="translate(377,437)"/>
<path d="M0 0 C0 0.99 0 1.98 0 3 C-1.74692795 3.67467562 -3.49768525 4.33944156 -5.25 5 C-6.71179688 5.556875 -6.71179688 5.556875 -8.203125 6.125 C-11 7 -11 7 -15 7 C-15 7.66 -15 8.32 -15 9 C-16.65 8.67 -18.3 8.34 -20 8 C-16.72899322 5.25942675 -13.41522379 3.81941925 -9.4375 2.3125 C-8.30183594 1.87550781 -7.16617188 1.43851563 -5.99609375 0.98828125 C-3 0 -3 0 0 0 Z " fill="#6A9ACF" transform="translate(173,18)"/>
<path d="M0 0 C0.99 0.33 1.98 0.66 3 1 C2.21625 1.721875 1.4325 2.44375 0.625 3.1875 C-2.07787292 5.71205642 -2.07787292 5.71205642 -2.875 8.4375 C-4.57827981 12.3171929 -7.70741798 14.43812469 -11 17 C-11.66 16.67 -12.32 16.34 -13 16 C-12.09507812 14.89591797 -12.09507812 14.89591797 -11.171875 13.76953125 C-10.37265625 12.79371094 -9.5734375 11.81789063 -8.75 10.8125 C-7.96109375 9.84957031 -7.1721875 8.88664062 -6.359375 7.89453125 C-4.22415228 5.27499477 -2.10643639 2.64270803 0 0 Z " fill="#DD7267" transform="translate(271,308)"/>
<path d="M0 0 C1.12297956 3.75122961 0.72975914 5.44944177 -1 9 C-1.99 10.485 -1.99 10.485 -3 12 C-3.39387788 14.32387947 -3.73486085 16.65793749 -4 19 C-5.65 19.33 -7.3 19.66 -9 20 C-6.86233829 12.755702 -3.77315981 6.53281715 0 0 Z " fill="#5689C3" transform="translate(35,132)"/>
<path d="M0 0 C4.66666667 4 9.33333333 8 14 12 C11 12 11 12 9.125 11 C6.99534153 9.80434405 6.99534153 9.80434405 4.375 10.0625 C3.59125 10.041875 2.8075 10.02125 2 10 C1.34 9.01 0.68 8.02 0 7 C0.33 6.01 0.66 5.02 1 4 C0.61067144 1.85744207 0.61067144 1.85744207 0 0 Z " fill="#D5473B" transform="translate(188,325)"/>
<path d="M0 0 C0.99 0 1.98 0 3 0 C4.71725555 1.94242017 6.23317166 3.84732093 7.75 5.9375 C8.63777643 7.12778649 9.52579877 8.31788961 10.4140625 9.5078125 C10.85008789 10.09852539 11.28611328 10.68923828 11.73535156 11.29785156 C13.49446986 13.6655297 15.30697722 15.98988314 17.125 18.3125 C17.96417969 19.38951172 17.96417969 19.38951172 18.8203125 20.48828125 C19.40425781 21.23658203 19.40425781 21.23658203 20 22 C19.67 22.66 19.34 23.32 19 24 C15.6604813 20.0051269 12.32744398 16.00493604 9 12 C8.55221191 11.46149414 8.10442383 10.92298828 7.64306641 10.36816406 C6.38423355 8.85193856 5.12952575 7.33229113 3.875 5.8125 C3.12992187 4.91144531 2.38484375 4.01039063 1.6171875 3.08203125 C0 1 0 1 0 0 Z " fill="#FCAD27" transform="translate(301,343)"/>
<path d="M0 0 C-1.32 0.33 -2.64 0.66 -4 1 C-3.92007812 1.75667969 -3.84015625 2.51335937 -3.7578125 3.29296875 C-4 6 -4 6 -5.6796875 7.80078125 C-6.76636719 8.54908203 -6.76636719 8.54908203 -7.875 9.3125 C-8.59429687 9.82425781 -9.31359375 10.33601563 -10.0546875 10.86328125 C-12 12 -12 12 -14 12 C-12.60484422 9.01517153 -10.97667625 6.44642111 -9 3.8125 C-8.484375 3.11769531 -7.96875 2.42289062 -7.4375 1.70703125 C-4.92649272 -1.2747899 -3.53486766 -1.0604603 0 0 Z " fill="#59A37B" transform="translate(446,105)"/>
<path d="M0 0 C1.32 0.33 2.64 0.66 4 1 C-0.95 5.95 -5.9 10.9 -11 16 C-11.33 15.01 -11.66 14.02 -12 13 C-11.34 12.01 -10.68 11.02 -10 10 C-9.01 10 -8.02 10 -7 10 C-5.79371992 7.66785852 -4.8345262 5.50357861 -4 3 C-2.68 3 -1.36 3 0 3 C0 2.01 0 1.02 0 0 Z " fill="#4D73B2" transform="translate(359,125)"/>
<path d="M0 0 C2.475 0.495 2.475 0.495 5 1 C5.33 1.99 5.66 2.98 6 4 C9.465 3.505 9.465 3.505 13 3 C13 5.64 13 8.28 13 11 C9.54691313 9.48729451 7.04375621 7.45279358 4.25 4.9375 C3.45078125 4.22464844 2.6515625 3.51179688 1.828125 2.77734375 C1.22484375 2.19082031 0.6215625 1.60429687 0 1 C0 0.67 0 0.34 0 0 Z " fill="#5377AF" transform="translate(79,425)"/>
<path d="M0 0 C2.68863169 2.61181364 5.24322221 5.22922153 7.625 8.125 C9.77576448 10.83143565 9.77576448 10.83143565 11.48046875 12.44921875 C13.09049079 14.09235178 14.37162247 15.80259435 15.6875 17.6875 C16.12449219 18.31011719 16.56148438 18.93273437 17.01171875 19.57421875 C17.50091797 20.27998047 17.50091797 20.27998047 18 21 C17.67 21.66 17.34 22.32 17 23 C0 3.15658363 0 3.15658363 0 0 Z " fill="#FBB026" transform="translate(343,394)"/>
<path d="M0 0 C0.12375 0.61875 0.2475 1.2375 0.375 1.875 C0.87197356 4.19120832 0.87197356 4.19120832 3 6 C2.34 6 1.68 6 1 6 C0.566875 6.928125 0.566875 6.928125 0.125 7.875 C-1 10 -1 10 -3 12 C-3 10.68 -3 9.36 -3 8 C-3.99 7.67 -4.98 7.34 -6 7 C-5.37162381 3.35541809 -4.14650034 0 0 0 Z " fill="#EEBD1E" transform="translate(446,384)"/>
<path d="M0 0 C0.33 0 0.66 0 1 0 C1.34833144 4.87664009 0.41685712 7.77050005 -2 12 C-3.32 12 -4.64 12 -6 12 C-6.33 12.66 -6.66 13.32 -7 14 C-7.66 13.67 -8.32 13.34 -9 13 C-7.68889201 11.01989841 -6.37618664 9.04088963 -5.0625 7.0625 C-4.50272461 6.21655273 -4.50272461 6.21655273 -3.93164062 5.35351562 C-1.11328125 1.11328125 -1.11328125 1.11328125 0 0 Z " fill="#266FB4" transform="translate(59,96)"/>
<path d="M0 0 C0.66 0 1.32 0 2 0 C2.33 0.99 2.66 1.98 3 3 C-0.96 6.96 -4.92 10.92 -9 15 C-9.66 14.34 -10.32 13.68 -11 13 C-10.4225 12.44570312 -9.845 11.89140625 -9.25 11.3203125 C-8.5075 10.59585938 -7.765 9.87140625 -7 9.125 C-6.2575 8.40570313 -5.515 7.68640625 -4.75 6.9453125 C-2.77706675 5.18829043 -2.77706675 5.18829043 -3 3 C-2.34 3 -1.68 3 -1 3 C-0.67 2.01 -0.34 1.02 0 0 Z " fill="#426DB2" transform="translate(319,164)"/>
<path d="M0 0 C1 3 1 3 0 6 C-0.66 6 -1.32 6 -2 6 C-2 6.66 -2 7.32 -2 8 C-3.1446875 8.8971875 -3.1446875 8.8971875 -4.3125 9.8125 C-7.03609725 12.02938148 -8.25532841 14.00913442 -10 17 C-10.66 17 -11.32 17 -12 17 C-12 17.66 -12 18.32 -12 19 C-12.66 18.67 -13.32 18.34 -14 18 C-4.58997722 5.33029613 -4.58997722 5.33029613 0 0 Z " fill="#89B89F" transform="translate(341,225)"/>
<path d="M0 0 C-1 3 -1 3 -2.875 4.1875 C-5 5 -5 5 -8 5 C-8.33 5.99 -8.66 6.98 -9 8 C-11.64 8 -14.28 8 -17 8 C-14.12071475 5.72195761 -11.2169671 3.95965316 -7.9375 2.3125 C-7.08027344 1.87550781 -6.22304687 1.43851563 -5.33984375 0.98828125 C-3 0 -3 0 0 0 Z " fill="#5D90C5" transform="translate(149,28)"/>
<path d="M0 0 C0.99 0.66 1.98 1.32 3 2 C-2.75 7 -2.75 7 -5 7 C-5.103125 7.639375 -5.20625 8.27875 -5.3125 8.9375 C-5.539375 9.618125 -5.76625 10.29875 -6 11 C-6.99 11.33 -7.98 11.66 -9 12 C-9 12.66 -9 13.32 -9 14 C-9.66 13.67 -10.32 13.34 -11 13 C-10.67 12.01 -10.34 11.02 -10 10 C-9.34 10 -8.68 10 -8 10 C-7.79375 9.278125 -7.5875 8.55625 -7.375 7.8125 C-5.54751837 4.0744694 -3.29561194 2.50753083 0 0 Z " fill="#C0483E" transform="translate(176,334)"/>
<path d="M0 0 C0.66 0.33 1.32 0.66 2 1 C1.8125 2.875 1.8125 2.875 1 5 C-1.375 6.1875 -1.375 6.1875 -4 7 C-4.99 7.33 -5.98 7.66 -7 8 C-7 8.66 -7 9.32 -7 10 C-8.98 10.66 -10.96 11.32 -13 12 C-9.12207712 7.07091854 -5.23883167 3.4576289 0 0 Z " fill="#70A1CD" transform="translate(100,56)"/>
<path d="M0 0 C4.72502701 0.63242669 8.90570197 1.91813563 13.375 3.5625 C14.01566406 3.79646484 14.65632813 4.03042969 15.31640625 4.27148438 C16.8793161 4.84299619 18.43990727 5.42084229 20 6 C20 6.33 20 6.66 20 7 C13.67721029 6.67373505 8.44535609 6.38495108 3 3 C3 2.34 3 1.68 3 1 C2.01 0.67 1.02 0.34 0 0 Z " fill="#5C8EC4" transform="translate(320,17)"/>
<path d="M0 0 C1.98 0.66 3.96 1.32 6 2 C6 2.99 6 3.98 6 5 C6.66 5.33 7.32 5.66 8 6 C10.0625 7.1875 10.0625 7.1875 12 9 C12.75 12.1875 12.75 12.1875 13 15 C9.34464487 12.2536824 6.50692328 9.40713195 3.6875 5.8125 C2.64142578 4.49185547 2.64142578 4.49185547 1.57421875 3.14453125 C0 1 0 1 0 0 Z " fill="#6D96C3" transform="translate(56,399)"/>
<path d="M0 0 C0.99 0.33 1.98 0.66 3 1 C1.89902432 2.12812303 0.79408444 3.25237811 -0.3125 4.375 C-0.92738281 5.00148437 -1.54226562 5.62796875 -2.17578125 6.2734375 C-4 8 -4 8 -7 10 C-9.5625 9.8125 -9.5625 9.8125 -12 9 C-12.66 8.01 -13.32 7.02 -14 6 C-11.66666667 6 -9.33333333 6 -7 6 C-5.17242607 4.48069155 -3.47456458 2.85374294 -1.75390625 1.21484375 C-1.17511719 0.81394531 -0.59632813 0.41304687 0 0 Z " fill="#2965AC" transform="translate(245,240)"/>
<path d="M0 0 C3.34865457 1.11621819 3.71566145 1.67474229 5.5625 4.5 C7.31619395 7.25536594 7.31619395 7.25536594 10 9 C11.01351664 10.65848177 12.01120795 12.32665961 13 14 C14.31037934 15.68477344 15.63823078 17.35648543 17 19 C16.67 19.66 16.34 20.32 16 21 C1.64784053 4.94352159 1.64784053 4.94352159 0 0 Z " fill="#FCB92D" transform="translate(325,372)"/>
<path d="M0 0 C0.66 0.99 1.32 1.98 2 3 C0.73657512 4.48549956 -0.5360103 5.96321189 -1.8125 7.4375 C-2.87404297 8.67306641 -2.87404297 8.67306641 -3.95703125 9.93359375 C-6 12 -6 12 -9 13 C-8.4352699 9.09170915 -6.57868029 7.10079777 -3.9375 4.25 C-3.20402344 3.45078125 -2.47054688 2.6515625 -1.71484375 1.828125 C-1.14894531 1.22484375 -0.58304687 0.6215625 0 0 Z " fill="#EFCF52" transform="translate(313,259)"/>
<path d="M0 0 C1.32 0 2.64 0 4 0 C5.9131426 2.60187393 7.16344644 5.3399686 8.5625 8.25 C9.71006958 11.09898919 9.71006958 11.09898919 12 12 C12 12.99 12 13.98 12 15 C11.34 15 10.68 15 10 15 C8.20549272 12.72009321 6.52633826 10.44236984 4.875 8.0625 C4.17310547 7.0734668 4.17310547 7.0734668 3.45703125 6.06445312 C0 1.15103407 0 1.15103407 0 0 Z " fill="#4879B0" transform="translate(43,380)"/>
<path d="M0 0 C0.99 0 1.98 0 3 0 C3.33 2.97 3.66 5.94 4 9 C4.66 9 5.32 9 6 9 C6 10.65 6 12.3 6 14 C6.66 14 7.32 14 8 14 C8 15.98 8 17.96 8 20 C5.76206424 16.64309635 4.34949662 13.1660716 2.875 9.4375 C2.59785156 8.75236328 2.32070313 8.06722656 2.03515625 7.36132812 C0 2.2533867 0 2.2533867 0 0 Z " fill="#739FD3" transform="translate(20,331)"/>
<path d="M0 0 C0.33 0.66 0.66 1.32 1 2 C2.65 1.34 4.3 0.68 6 0 C5.67 4.95 5.34 9.9 5 15 C4.67 15 4.34 15 4 15 C4 13.02 4 11.04 4 9 C3.34 9 2.68 9 2 9 C2 7.35 2 5.7 2 4 C1.34 4 0.68 4 0 4 C0 2.68 0 1.36 0 0 Z " fill="#216AB2" transform="translate(24,336)"/>
<path d="M0 0 C2.99622264 2.63474805 3.5099917 4.59711105 3.8828125 8.59375 C4.10045848 13.06274741 4.07399458 17.52743875 4 22 C3.67 22 3.34 22 3 22 C2.855625 20.865625 2.71125 19.73125 2.5625 18.5625 C2.38828522 15.19222799 2.38828522 15.19222799 1 14 C0.76472227 11.65012738 0.58613583 9.29443961 0.4375 6.9375 C0.35371094 5.64714844 0.26992188 4.35679687 0.18359375 3.02734375 C0.12300781 2.02832031 0.06242187 1.02929688 0 0 Z " fill="#65A17E" transform="translate(488,212)"/>
<path d="M0 0 C2.40610878 3.70170582 2.09717817 6.68768167 1.75 11 C1.61851563 12.8253125 1.61851563 12.8253125 1.484375 14.6875 C1.0539354 17.63115148 0.52999168 19.49181692 -1 22 C-1.02726927 19.64575325 -1.04696719 17.29183038 -1.0625 14.9375 C-1.07990234 12.97103516 -1.07990234 12.97103516 -1.09765625 10.96484375 C-1.00452335 7.1836481 -0.61448726 3.72079293 0 0 Z " fill="#8BB2D9" transform="translate(8,210)"/>
<path d="M0 0 C0.33 1.32 0.66 2.64 1 4 C0.34 4 -0.32 4 -1 4 C-0.896875 4.763125 -0.79375 5.52625 -0.6875 6.3125 C-0.8421875 7.6428125 -0.8421875 7.6428125 -1 9 C-3.3125 10.625 -3.3125 10.625 -6 12 C-7.75149165 13.58245275 -7.75149165 13.58245275 -9 15 C-7.61219205 11.10993227 -5.7847773 8.03441292 -3.375 4.6875 C-2.74335937 3.80449219 -2.11171875 2.92148438 -1.4609375 2.01171875 C-0.97882812 1.34785156 -0.49671875 0.68398437 0 0 Z " fill="#5990C6" transform="translate(49,110)"/>
<path d="M0 0 C5.3503559 0.57021934 10.67787852 1.20734361 16 2 C16.33 2.99 16.66 3.98 17 5 C10.85845775 4.41509121 4.99320151 3.45933748 -1 2 C-0.67 1.34 -0.34 0.68 0 0 Z " fill="#D26B62" transform="translate(187,485)"/>
<path d="M0 0 C0.33 1.32 0.66 2.64 1 4 C-0.175625 4.61875 -0.175625 4.61875 -1.375 5.25 C-4.07493765 6.73642619 -4.07493765 6.73642619 -5 9 C-6.39121745 11.7824349 -8.30164212 12.55210065 -11 14 C-11.99 14.66 -12.98 15.32 -14 16 C-12.48031735 12.13171688 -10.20197271 10.56157817 -7 8 C-4.58874311 5.39864401 -2.2847391 2.71271616 0 0 Z " fill="#AE4D4F" transform="translate(164,348)"/>
<path d="M0 0 C8.81872736 0 14.05268416 3.83947266 21 9 C20.67 9.66 20.34 10.32 20 11 C18.02 10.01 16.04 9.02 14 8 C14 7.34 14 6.68 14 6 C11.03 5.505 11.03 5.505 8 5 C8 4.01 8 3.02 8 2 C5.36 1.67 2.72 1.34 0 1 C0 0.67 0 0.34 0 0 Z " fill="#5788BF" transform="translate(365,38)"/>
<path d="M0 0 C0.928125 0.2784375 0.928125 0.2784375 1.875 0.5625 C4.04160178 1.23686176 4.04160178 1.23686176 6 0 C5.566875 0.928125 5.566875 0.928125 5.125 1.875 C3.58288195 6.15866124 2.81601453 10.52928212 2 15 C1.67 15 1.34 15 1 15 C0.80426392 13.56359829 0.61872184 12.12580496 0.4375 10.6875 C0.33308594 9.88699219 0.22867188 9.08648437 0.12109375 8.26171875 C0 6 0 6 1 3 C0.34 3 -0.32 3 -1 3 C-0.67 2.01 -0.34 1.02 0 0 Z " fill="#5689C3" transform="translate(91,210)"/>
<path d="M0 0 C1 3 1 3 0.375 5.5 C-1.29284233 8.5324406 -2.99762381 9.3833359 -6 11 C-6.33 11.66 -6.66 12.32 -7 13 C-7.66 13 -8.32 13 -9 13 C-9 13.66 -9 14.32 -9 15 C-9.66 14.67 -10.32 14.34 -11 14 C-10.37351562 13.24074219 -9.74703125 12.48148438 -9.1015625 11.69921875 C-8.28429687 10.70535156 -7.46703125 9.71148437 -6.625 8.6875 C-5.81289063 7.70136719 -5.00078125 6.71523437 -4.1640625 5.69921875 C-1.94395043 3.01091621 -1.94395043 3.01091621 0 0 Z " fill="#6AAD86" transform="translate(365,196)"/>
<path d="M0 0 C2.29158942 2.89818662 4.07862366 5.83140544 5.75 9.125 C6.19859375 9.99382812 6.6471875 10.86265625 7.109375 11.7578125 C7.40328125 12.49773437 7.6971875 13.23765625 8 14 C7.67 14.66 7.34 15.32 7 16 C6.34 16 5.68 16 5 16 C4.28832112 14.33941595 3.57746625 12.67847319 2.87109375 11.015625 C2.29626832 9.68553567 1.70536634 8.36226481 1.09765625 7.046875 C0.34194737 5.38919101 -0.33487784 3.6960615 -1 2 C-0.67 1.34 -0.34 0.68 0 0 Z " fill="#579770" transform="translate(461,129)"/>
<path d="M0 0 C0.66 0 1.32 0 2 0 C0.45454854 5.47932789 -2.15543212 10.11429181 -5 15 C-5.33 15 -5.66 15 -6 15 C-6 12.69 -6 10.38 -6 8 C-5.34 7.67 -4.68 7.34 -4 7 C-3.67 6.01 -3.34 5.02 -3 4 C-2.34 4 -1.68 4 -1 4 C-0.67 2.68 -0.34 1.36 0 0 Z " fill="#EAC659" transform="translate(464,360)"/>
<path d="M0 0 C3.21524305 1.40844718 5.32183868 3.10344786 7.75 5.625 C8.67039063 6.57246094 8.67039063 6.57246094 9.609375 7.5390625 C10.29773438 8.26222656 10.29773438 8.26222656 11 9 C8 10 8 10 5 10 C5 9.34 5 8.68 5 8 C4.34 7.67 3.68 7.34 3 7 C3 6.34 3 5.68 3 5 C2.505 4.505 2.01 4.01 1.5 3.5 C1.005 3.005 0.51 2.51 0 2 C0 1.34 0 0.68 0 0 Z " fill="#3B6AAC" transform="translate(167,305)"/>
<path d="M0 0 C0.66 0 1.32 0 2 0 C2.84098656 4.01804691 3.05404945 7.01803543 2 11 C2.66 11 3.32 11 4 11 C4 14.3 4 17.6 4 21 C3.67 21 3.34 21 3 21 C2.49265716 18.6263603 1.99397614 16.25142575 1.5 13.875 C1.35691406 13.20984375 1.21382812 12.5446875 1.06640625 11.859375 C0.2387717 7.83943578 -0.15330658 4.10095101 0 0 Z " fill="#92BADF" transform="translate(8,283)"/>
<path d="M0 0 C1.32 0 2.64 0 4 0 C2.4169423 4.2742558 -0.50568404 6.26531794 -4 9 C-4.66 7.68 -5.32 6.36 -6 5 C-4.04783565 3.04783565 -2.46800047 2.15173355 0 1 C0 0.67 0 0.34 0 0 Z " fill="#396AB1" transform="translate(252,231)"/>
<path d="M0 0 C2.475 0.99 2.475 0.99 5 2 C2.76504572 4.23495428 0.97585464 5.0024791 -1.9375 6.1875 C-2.81277344 6.55230469 -3.68804687 6.91710937 -4.58984375 7.29296875 C-7 8 -7 8 -10 7 C-9.0925 6.5875 -8.185 6.175 -7.25 5.75 C-4.20334382 4.10949282 -2.28873194 2.55281639 0 0 Z " fill="#D8645F" transform="translate(335,474)"/>
<path d="M0 0 C3.84904344 1.28301448 5.01929806 3.1160378 7.5625 6.25 C8.34753906 7.20390625 9.13257813 8.1578125 9.94140625 9.140625 C11.81499827 11.74303365 12.98034586 13.97961908 14 17 C10.4868911 13.5804908 7.28960013 10.05688905 4.1875 6.25 C3.39730469 5.28578125 2.60710937 4.3215625 1.79296875 3.328125 C0 1 0 1 0 0 Z " fill="#FCAF29" transform="translate(363,420)"/>
<path d="M0 0 C0.66 0.33 1.32 0.66 2 1 C-2.88402626 7.37636761 -2.88402626 7.37636761 -7 8 C-8.010625 8.53625 -9.02125 9.0725 -10.0625 9.625 C-13 11 -13 11 -16 10 C-15.26394531 9.61328125 -14.52789062 9.2265625 -13.76953125 8.828125 C-6.51542002 4.97364007 -6.51542002 4.97364007 0 0 Z " fill="#F3C1BC" transform="translate(248,334)"/>
<path d="M0 0 C0.33 0.99 0.66 1.98 1 3 C-0.3125 5.1875 -0.3125 5.1875 -2 7 C-2.66 7 -3.32 7 -4 7 C-3.67 7.99 -3.34 8.98 -3 10 C-4.8125 11.5625 -4.8125 11.5625 -7 13 C-7.99 12.67 -8.98 12.34 -10 12 C-6.7 8.04 -3.4 4.08 0 0 Z " fill="#76B292" transform="translate(384,173)"/>
<path d="M0 0 C2.125 0.375 2.125 0.375 4 1 C2.61811547 4.21043882 1.07578097 6.04936365 -1.625 8.25 C-2.25664062 8.77078125 -2.88828125 9.2915625 -3.5390625 9.828125 C-4.02117187 10.21484375 -4.50328125 10.6015625 -5 11 C-4.67 9.68 -4.34 8.36 -4 7 C-3.34 7 -2.68 7 -2 7 C-2.061875 5.824375 -2.061875 5.824375 -2.125 4.625 C-2 2 -2 2 0 0 Z " fill="#3B6CAF" transform="translate(370,112)"/>
<path d="M0 0 C2.475 0.495 2.475 0.495 5 1 C5.0825 1.61875 5.165 2.2375 5.25 2.875 C5.78035516 5.16150356 5.78035516 5.16150356 7.875 5.9375 C10.71688163 7.35844081 11.54799491 9.24119033 13 12 C9.34435261 10.46563424 7.01301377 8.25017578 4.25 5.4375 C3.45078125 4.63183594 2.6515625 3.82617188 1.828125 2.99609375 C0 1 0 1 0 0 Z " fill="#3C6AA8" transform="translate(212,237)"/>
<path d="M0 0 C0.99 0.33 1.98 0.66 3 1 C-0.63 4.63 -4.26 8.26 -8 12 C-8.33 11.01 -8.66 10.02 -9 9 C-6.03 6.03 -3.06 3.06 0 0 Z " fill="#4C73B0" transform="translate(300,185)"/>
<path d="M0 0 C0.66 0.33 1.32 0.66 2 1 C0.56760415 2.79574993 -0.8711004 4.58646907 -2.3125 6.375 C-3.51326172 7.87160156 -3.51326172 7.87160156 -4.73828125 9.3984375 C-7 12 -7 12 -10 14 C-8.84826645 11.53199953 -7.95216435 9.95216435 -6 8 C-5.83318891 4.91652174 -5.83318891 4.91652174 -6 2 C-4.7934375 1.7834375 -4.7934375 1.7834375 -3.5625 1.5625 C-1.07896294 1.25864751 -1.07896294 1.25864751 0 0 Z " fill="#605783" transform="translate(130,384)"/>
<path d="M0 0 C0.99 0 1.98 0 3 0 C1.68938409 4.23429756 0.05643741 8.07407404 -2 12 C-4 8.25 -4 8.25 -4 6 C-3.34 6 -2.68 6 -2 6 C-1.67 5.01 -1.34 4.02 -1 3 C-0.67 2.01 -0.34 1.02 0 0 Z " fill="#EAC64B" transform="translate(469,348)"/>
<path d="M0 0 C1.7074998 1.28062485 3.37373596 2.61767557 5 4 C5 4.66 5 5.32 5 6 C4.01 6.33 3.02 6.66 2 7 C1.67 7.66 1.34 8.32 1 9 C0.01 8.67 -0.98 8.34 -2 8 C-1.34 5.36 -0.68 2.72 0 0 Z " fill="#D54220" transform="translate(273,309)"/>
<path d="M0 0 C1.98 0 3.96 0 6 0 C5.04578192 1.14926266 4.08647955 2.29430541 3.125 3.4375 C2.59132813 4.07558594 2.05765625 4.71367187 1.5078125 5.37109375 C0 7 0 7 -2 8 C-2.33 6.35 -2.66 4.7 -3 3 C-2.01 2.67 -1.02 2.34 0 2 C0 1.34 0 0.68 0 0 Z " fill="#EEC64E" transform="translate(421,416)"/>
<path d="M0 0 C1.32 1.32 2.64 2.64 4 4 C1.69 6.64 -0.62 9.28 -3 12 C-4 8 -4 8 -4 6 C-2.68 6 -1.36 6 0 6 C0 4.02 0 2.04 0 0 Z " fill="#F1C754" transform="translate(432,403)"/>
<path d="M0 0 C0.66 0.33 1.32 0.66 2 1 C1.34 1.66 0.68 2.32 0 3 C-0.6425235 5.06874034 -0.6425235 5.06874034 -1 7 C-1.66 7 -2.32 7 -3 7 C-3 7.66 -3 8.32 -3 9 C-4.65 9.33 -6.3 9.66 -8 10 C-8 10.66 -8 11.32 -8 12 C-8.66 11.67 -9.32 11.34 -10 11 C-9.278125 10.29875 -8.55625 9.5975 -7.8125 8.875 C-5.00176187 6.07229255 -2.50483774 3.07737208 0 0 Z " fill="#86526C" transform="translate(118,398)"/>
<path d="M0 0 C0.99 0.33 1.98 0.66 3 1 C-0.3 4.3 -3.6 7.6 -7 11 C-7.33 10.01 -7.66 9.02 -8 8 C-5.36 5.36 -2.72 2.72 0 0 Z " fill="#4D72AF" transform="translate(344,141)"/>
<path d="M0 0 C6.43681228 0.51085812 11.95942424 1.72942897 18 4 C18 4.33 18 4.66 18 5 C15.03 5 12.06 5 9 5 C8.67 4.01 8.34 3.02 8 2 C7.05125 2.04125 6.1025 2.0825 5.125 2.125 C2 2 2 2 0 0 Z " fill="#8FB3DB" transform="translate(302,12)"/>
<path d="M0 0 C3.07202224 4.60803336 5.50112337 8.32060178 5 14 C2.47059262 10.86835277 0.55079982 7.72191958 -1 4 C-0.6875 1.625 -0.6875 1.625 0 0 Z " fill="#5C8CC3" transform="translate(29,349)"/>
<path d="M0 0 C0.33 0 0.66 0 1 0 C1.36625971 4.51720311 1.36625971 4.51720311 -0.375 6.8125 C-2 8 -2 8 -4 8 C-4.66 9.32 -5.32 10.64 -6 12 C-6.66 11.67 -7.32 11.34 -8 11 C-7.59007812 10.45730469 -7.18015625 9.91460937 -6.7578125 9.35546875 C-6.21898437 8.64003906 -5.68015625 7.92460937 -5.125 7.1875 C-4.59132813 6.47980469 -4.05765625 5.77210938 -3.5078125 5.04296875 C-2.29185219 3.39543703 -1.13583859 1.70375789 0 0 Z " fill="#F2BF22" transform="translate(303,272)"/>
<path d="M0 0 C0.33 0.66 0.66 1.32 1 2 C0.04882866 3.1725131 -0.91117009 4.33787015 -1.875 5.5 C-2.40867187 6.1496875 -2.94234375 6.799375 -3.4921875 7.46875 C-4.23855469 8.22671875 -4.23855469 8.22671875 -5 9 C-5.66 9 -6.32 9 -7 9 C-7 9.66 -7 10.32 -7 11 C-7.99 10.67 -8.98 10.34 -10 10 C-8.1875 7.5 -8.1875 7.5 -6 5 C-5.01 5 -4.02 5 -3 5 C-3 4.34 -3 3.68 -3 3 C-2.34 3 -1.68 3 -1 3 C-0.67 2.01 -0.34 1.02 0 0 Z " fill="#519E73" transform="translate(332,239)"/>
<path d="M0 0 C0.99 0 1.98 0 3 0 C3 0.66 3 1.32 3 2 C3.99 2.33 4.98 2.66 6 3 C6 3.66 6 4.32 6 5 C6.61875 5.268125 7.2375 5.53625 7.875 5.8125 C10 7 10 7 12 10 C9 10 9 10 6.73828125 8.06640625 C5.93777344 7.24011719 5.13726562 6.41382813 4.3125 5.5625 C3.50425781 4.73878906 2.69601563 3.91507813 1.86328125 3.06640625 C0 1 0 1 0 0 Z " fill="#3766A6" transform="translate(201,226)"/>
<path d="M0 0 C1 3 1 3 0.25 5.5 C-0.93511657 7.87023314 -2.01292881 9.28389306 -4 11 C-4.66 10.67 -5.32 10.34 -6 10 C-4.6302836 6.00499382 -2.74277578 3.19990508 0 0 Z " fill="#54A374" transform="translate(347,218)"/>
<path d="M0 0 C1.04449911 3.13349732 0.93423645 3.98968256 0 7 C-0.66 7 -1.32 7 -2 7 C-2.66 8.65 -3.32 10.3 -4 12 C-4.99 11.67 -5.98 11.34 -7 11 C-6.34 10.34 -5.68 9.68 -5 9 C-4.690625 8.21625 -4.38125 7.4325 -4.0625 6.625 C-3.00983103 4.02428842 -1.76321255 2.16394268 0 0 Z " fill="#5FA67E" transform="translate(404,149)"/>
<path d="M0 0 C1.23556641 0.01740234 1.23556641 0.01740234 2.49609375 0.03515625 C3.32238281 0.04417969 4.14867187 0.05320312 5 0.0625 C5.63808594 0.07410156 6.27617187 0.08570313 6.93359375 0.09765625 C6.60359375 0.75765625 6.27359375 1.41765625 5.93359375 2.09765625 C0.67828782 3.44517059 -4.68220023 3.19342276 -10.06640625 3.09765625 C-10.06640625 2.76765625 -10.06640625 2.43765625 -10.06640625 2.09765625 C-8.93203125 1.95328125 -7.79765625 1.80890625 -6.62890625 1.66015625 C-3.60888417 1.18331066 -2.70258268 0.1277213 0 0 Z " fill="#D3766E" transform="translate(281.06640625,489.90234375)"/>
<path d="M0 0 C1.65 0.99 3.3 1.98 5 3 C1.46588679 5.12046792 -1.94393835 5.53199289 -6 6 C-6 5.34 -6 4.68 -6 4 C-4.35 3.67 -2.7 3.34 -1 3 C-0.67 2.01 -0.34 1.02 0 0 Z " fill="#D5655B" transform="translate(310,482)"/>
<path d="M0 0 C0.66 1.32 1.32 2.64 2 4 C-0.31 5.98 -2.62 7.96 -5 10 C-5 9.01 -5 8.02 -5 7 C-4.34 7 -3.68 7 -3 7 C-3.061875 6.21625 -3.12375 5.4325 -3.1875 4.625 C-3.125625 3.75875 -3.06375 2.8925 -3 2 C-2.01 1.34 -1.02 0.68 0 0 Z " fill="#3B6DB4" transform="translate(269,214)"/>
<path d="M0 0 C0.33 1.32 0.66 2.64 1 4 C0.0409375 4.37125 0.0409375 4.37125 -0.9375 4.75 C-3.18741541 5.81562433 -3.18741541 5.81562433 -3.75 8.125 C-3.8325 8.74375 -3.915 9.3625 -4 10 C-5.32 9.67 -6.64 9.34 -8 9 C-5.36 6.03 -2.72 3.06 0 0 Z " fill="#6A9CCE" transform="translate(68,85)"/>
<path d="M0 0 C1.32 0.33 2.64 0.66 4 1 C2.5682479 6.01113235 0.01554307 7.94469549 -4 11 C-3.71125 10.484375 -3.4225 9.96875 -3.125 9.4375 C-1.71219973 6.37643275 -0.8751483 3.25055082 0 0 Z " fill="#4F5E8B" transform="translate(182,321)"/>
<path d="M0 0 C1.32 0 2.64 0 4 0 C3.39305845 3.15330554 2.3583335 5.18888867 0.4375 7.75 C-0.24505859 8.67039062 -0.24505859 8.67039062 -0.94140625 9.609375 C-1.29074219 10.06828125 -1.64007813 10.5271875 -2 11 C-2 7.07103605 -0.99700137 3.80106772 0 0 Z " fill="#285FAD" transform="translate(178,324)"/>
<path d="M0 0 C0.33 0 0.66 0 1 0 C1.1799928 5.21979128 0.97094808 9.07262981 -1 14 C-1.33 14 -1.66 14 -2 14 C-2.33 11.03 -2.66 8.06 -3 5 C-2.01 5 -1.02 5 0 5 C0 3.35 0 1.7 0 0 Z " fill="#EAB926" transform="translate(485,299)"/>
<path d="M0 0 C0.43570313 0.37511719 0.87140625 0.75023437 1.3203125 1.13671875 C5.18607599 4.45859777 9.07657648 7.74642927 13 11 C12.34 11.66 11.68 12.32 11 13 C9.16052663 11.21427748 7.32842259 9.42197551 5.5 7.625 C4.71302734 6.86316406 4.71302734 6.86316406 3.91015625 6.0859375 C2.56846819 4.76167396 1.28004185 3.38394135 0 2 C0 1.34 0 0.68 0 0 Z " fill="#1D5499" transform="translate(155,293)"/>
<path d="M0 0 C0.33 0.66 0.66 1.32 1 2 C0.0625 4.125 0.0625 4.125 -1 6 C-1.99 6 -2.98 6 -4 6 C-4.33 7.32 -4.66 8.64 -5 10 C-5.66 10 -6.32 10 -7 10 C-6.42424336 6.64749299 -5.40693737 5.06181371 -2.9375 2.75 C-2.38964844 2.22921875 -1.84179688 1.7084375 -1.27734375 1.171875 C-0.64505859 0.59179688 -0.64505859 0.59179688 0 0 Z " fill="#7CAB8D" transform="translate(321,250)"/>
<path d="M0 0 C0.3125 2.25 0.3125 2.25 0 5 C-2.5 7.3125 -2.5 7.3125 -5 9 C-5.36666667 3.5 -5.36666667 3.5 -3.625 1.125 C-2 0 -2 0 0 0 Z " fill="#5381B8" transform="translate(110,192)"/>
<path d="M0 0 C1.32 0.66 2.64 1.32 4 2 C1.36 4.64 -1.28 7.28 -4 10 C-4.33 9.01 -4.66 8.02 -5 7 C-4.34 7 -3.68 7 -3 7 C-3 6.34 -3 5.68 -3 5 C-2.34 5 -1.68 5 -1 5 C-0.67 3.35 -0.34 1.7 0 0 Z " fill="#3469A7" transform="translate(407,76)"/>
<path d="M0 0 C3.55780196 0.60990891 6.6828589 1.5783681 10 3 C8.375 4.125 8.375 4.125 6 5 C2.75 4.125 2.75 4.125 0 3 C0 2.01 0 1.02 0 0 Z " fill="#5A8FC6" transform="translate(340,24)"/>
<path d="M0 0 C0.66 0 1.32 0 2 0 C2 0.66 2 1.32 2 2 C3.32 2.33 4.64 2.66 6 3 C6.33 4.65 6.66 6.3 7 8 C6.01 8 5.02 8 4 8 C2.68 5.36 1.36 2.72 0 0 Z " fill="#4C80BE" transform="translate(38,371)"/>
<path d="M0 0 C0.99 0 1.98 0 3 0 C1.25 5.75 1.25 5.75 -1 8 C-2.32 8 -3.64 8 -5 8 C-5 7.34 -5 6.68 -5 6 C-4.01 5.67 -3.02 5.34 -2 5 C-0.78130071 2.49552484 -0.78130071 2.49552484 0 0 Z " fill="#399460" transform="translate(322,250)"/>
<path d="M0 0 C4.90629228 1.36285897 6.45770646 3.70440058 9 8 C9.99 9.485 9.99 9.485 11 11 C7.584241 9.55661511 5.63973737 7.75105832 3.25 4.9375 C2.63640625 4.22464844 2.0228125 3.51179687 1.390625 2.77734375 C0 1 0 1 0 0 Z " fill="#6C92BE" transform="translate(162,188)"/>
<path d="M0 0 C5.29441695 -0.50423019 7.81413519 0.81076967 12 4 C8.35839192 5.21386936 7.66834531 4.6674695 4.3125 3.0625 C3.10013672 2.49208984 3.10013672 2.49208984 1.86328125 1.91015625 C1.24839844 1.60980469 0.63351563 1.30945313 0 1 C0 0.67 0 0.34 0 0 Z " fill="#D26457" transform="translate(151,473)"/>
<path d="M0 0 C0.33 0.99 0.66 1.98 1 3 C1.66 3 2.32 3 3 3 C3 4.98 3 6.96 3 9 C3.66 9 4.32 9 5 9 C5.33 9.99 5.66 10.98 6 12 C5.01 13.485 5.01 13.485 4 15 C3.32532438 13.25307205 2.66055844 11.50231475 2 9.75 C1.62875 8.77546875 1.2575 7.8009375 0.875 6.796875 C0 4 0 4 0 0 Z " fill="#93B7DF" transform="translate(15,316)"/>
<path d="M0 0 C0.33 0 0.66 0 1 0 C1.25 2.3125 1.25 2.3125 1 5 C-0.875 6.625 -0.875 6.625 -3 8 C-3.99 9.485 -3.99 9.485 -5 11 C-5.66 10.34 -6.32 9.68 -7 9 C-5.76302083 7.53515625 -4.52604167 6.0703125 -3.2890625 4.60546875 C-2.10798901 3.1344954 -1.04641471 1.56962206 0 0 Z " fill="#F6D26C" transform="translate(279,298)"/>
<path d="M0 0 C0.33 0.66 0.66 1.32 1 2 C2.65 1.34 4.3 0.68 6 0 C4.50902342 3.7952131 2.24299151 5.61042731 -1 8 C-1 7.01 -1 6.02 -1 5 C-0.34 5 0.32 5 1 5 C0.34 3.68 -0.32 2.36 -1 1 C-0.67 0.67 -0.34 0.34 0 0 Z " fill="#436EAE" transform="translate(273,208)"/>
<path d="M0 0 C0.33 0.66 0.66 1.32 1 2 C0.06553465 4.03144641 -0.93224776 6.03533587 -2 8 C-2.99 8 -3.98 8 -5 8 C-5 8.66 -5 9.32 -5 10 C-5.66 10 -6.32 10 -7 10 C-5.33248852 6.05860922 -2.77289351 3.2107188 0 0 Z " fill="#7CB892" transform="translate(423,126)"/>
<path d="M0 0 C3.81684226 1.55500981 6.19195732 4.03595495 9 7 C7.35 6.67 5.7 6.34 4 6 C3.67 5.01 3.34 4.02 3 3 C2.01 3.33 1.02 3.66 0 4 C0 2.68 0 1.36 0 0 Z " fill="#6792BF" transform="translate(397,56)"/>
<path d="M0 0 C0.66 0 1.32 0 2 0 C1.8125 1.8125 1.8125 1.8125 1 4 C-0.63064764 5.05771739 -2.30280873 6.05273046 -4 7 C-5.36984198 8.29579647 -6.7151049 9.61992749 -8 11 C-6.63859873 6.54450493 -4.69243386 4.74565595 -1 2 C-0.67 1.34 -0.34 0.68 0 0 Z " fill="#6F567A" transform="translate(148,364)"/>
<path d="M0 0 C0 0.99 0 1.98 0 3 C-0.99 3.33 -1.98 3.66 -3 4 C-3.34342449 5.33076989 -3.67619874 6.66431979 -4 8 C-4.99 8.66 -5.98 9.32 -7 10 C-6.67 8.35 -6.34 6.7 -6 5 C-5.34 5 -4.68 5 -4 5 C-4 4.01 -4 3.02 -4 2 C-2.68 1.34 -1.36 0.68 0 0 Z " fill="#4C5A8E" transform="translate(107,410)"/>
<path d="M0 0 C2.31 1.98 4.62 3.96 7 6 C5.02 6.99 5.02 6.99 3 8 C0 2.25 0 2.25 0 0 Z " fill="#3E6FAF" transform="translate(116,252)"/>
<path d="M0 0 C1 3 1 3 0 6 C-0.66 6 -1.32 6 -2 6 C-2 6.66 -2 7.32 -2 8 C-2.99 8.33 -3.98 8.66 -5 9 C-4.42647107 5.12867972 -2.51295648 2.91827204 0 0 Z " fill="#7EB694" transform="translate(341,225)"/>
<path d="M0 0 C2.375 -0.1875 2.375 -0.1875 5 0 C5.66 0.99 6.32 1.98 7 3 C6.67 4.32 6.34 5.64 6 7 C4.02 4.69 2.04 2.38 0 0 Z " fill="#1A5AA7" transform="translate(185,209)"/>
<path d="M0 0 C0.99 0.33 1.98 0.66 3 1 C0.69 3.31 -1.62 5.62 -4 8 C-4.66 7.34 -5.32 6.68 -6 6 C-4.02 4.02 -2.04 2.04 0 0 Z " fill="#4C72B3" transform="translate(288,197)"/>
<path d="M0 0 C0 3 0 3 -1.42578125 4.640625 C-2.04839844 5.17171875 -2.67101562 5.7028125 -3.3125 6.25 C-4.23482422 7.06210937 -4.23482422 7.06210937 -5.17578125 7.890625 C-5.77777344 8.25671875 -6.37976563 8.6228125 -7 9 C-7.99 8.67 -8.98 8.34 -10 8 C-6.7 5.36 -3.4 2.72 0 0 Z " fill="#6099C6" transform="translate(115,45)"/>
<path d="M0 0 C0.556875 0.185625 1.11375 0.37125 1.6875 0.5625 C4.399133 1.07551165 6.34371039 0.6640724 9 0 C6.47211993 2.79872437 4.79588866 4.45773019 1 5 C0.67 3.35 0.34 1.7 0 0 Z " fill="#CE5E54" transform="translate(376,452)"/>
<path d="M0 0 C0.66 0.33 1.32 0.66 2 1 C1.1875 3.4375 1.1875 3.4375 0 6 C-0.99 6.33 -1.98 6.66 -3 7 C-3 7.66 -3 8.32 -3 9 C-3.66 8.67 -4.32 8.34 -5 8 C-4.67 7.01 -4.34 6.02 -4 5 C-3.34 5 -2.68 5 -2 5 C-1.34 3.35 -0.68 1.7 0 0 Z " fill="#A94D55" transform="translate(170,339)"/>
<path d="M0 0 C0 3.30941204 -0.40339294 5.11090151 -2 8 C-4.625 8.8125 -4.625 8.8125 -7 9 C-6.02180976 7.68677212 -5.0424189 6.37443848 -4.0625 5.0625 C-3.51722656 4.33160156 -2.97195312 3.60070312 -2.41015625 2.84765625 C-1 1 -1 1 0 0 Z " fill="#E48980" transform="translate(257,325)"/>
<path d="M0 0 C0.33 0.66 0.66 1.32 1 2 C-0.25 4.5625 -0.25 4.5625 -2 7 C-2.99 7.33 -3.98 7.66 -5 8 C-4.45773019 4.20411134 -2.79872437 2.52788007 0 0 Z " fill="#EFC436" transform="translate(285,293)"/>
<path d="M0 0 C0.99 0.33 1.98 0.66 3 1 C0.69 3.31 -1.62 5.62 -4 8 C-4.33 7.01 -4.66 6.02 -5 5 C-3.35 3.35 -1.7 1.7 0 0 Z " fill="#4D72AE" transform="translate(245,240)"/>
<path d="M0 0 C1.32 0.33 2.64 0.66 4 1 C1.6875 3.5 1.6875 3.5 -1 6 C-1.99 6 -2.98 6 -4 6 C-4 5.01 -4 4.02 -4 3 C-2.68 3 -1.36 3 0 3 C0 2.01 0 1.02 0 0 Z " fill="#416CB0" transform="translate(359,125)"/>
<path d="M0 0 C0.66 0 1.32 0 2 0 C2.33 1.32 2.66 2.64 3 4 C2.01 4.66 1.02 5.32 0 6 C0 5.34 0 4.68 0 4 C-1.32 3.67 -2.64 3.34 -4 3 C-2.68 2.67 -1.36 2.34 0 2 C0 1.34 0 0.68 0 0 Z M-7 5 C-5 6 -5 6 -5 6 Z " fill="#0E5CAA" transform="translate(377,104)"/>
<path d="M0 0 C2.97 0 5.94 0 9 0 C4.56 2.96 4.56 2.96 2 4 C1.01 3.67 0.02 3.34 -1 3 C-0.34 3 0.32 3 1 3 C0.67 2.01 0.34 1.02 0 0 Z " fill="#D35B52" transform="translate(341,472)"/>
<path d="M0 0 C3.02419525 0.58803797 6.01758453 1.22678118 9 2 C9 2.99 9 3.98 9 5 C5.22454612 3.90931332 2.52956528 3.0916909 0 0 Z " fill="#D7675F" transform="translate(135,465)"/>
<path d="M0 0 C2.375 0.25 2.375 0.25 5 1 C6.3125 3.0625 6.3125 3.0625 7 5 C6.01 5 5.02 5 4 5 C1.8125 2.5 1.8125 2.5 0 0 Z " fill="#6B93C6" transform="translate(73,419)"/>
<path d="M0 0 C0.99 0.33 1.98 0.66 3 1 C0.42215154 3.64752004 -1.91648098 5.94432065 -5 8 C-3.62845496 5.04590299 -2.01136276 2.55991624 0 0 Z " fill="#EB9489" transform="translate(271,308)"/>
<path d="M0 0 C0.33 0 0.66 0 1 0 C1.22786458 2.05078125 1.45572917 4.1015625 1.68359375 6.15234375 C1.81886614 8.01140229 1.81886614 8.01140229 3 9 C3.04080783 10.99958364 3.04254356 13.00045254 3 15 C2.67 13.68 2.34 12.36 2 11 C1.34 11 0.68 11 0 11 C0 7.37 0 3.74 0 0 Z " fill="#3F7CBB" transform="translate(8,272)"/>
<path d="M0 0 C1.32 0.33 2.64 0.66 4 1 C3.67 1.99 3.34 2.98 3 4 C1.35 4.33 -0.3 4.66 -2 5 C-1.34 3.35 -0.68 1.7 0 0 Z " fill="#296FB8" transform="translate(103,54)"/>
<path d="M0 0 C-0.33 1.32 -0.66 2.64 -1 4 C-3.64 4.33 -6.28 4.66 -9 5 C-2.87096774 0 -2.87096774 0 0 0 Z " fill="#6B9DCA" transform="translate(132,36)"/>
<path d="M0 0 C0.598125 0.165 1.19625 0.33 1.8125 0.5 C4.11344336 1.1114124 4.11344336 1.1114124 7 1 C7 2.65 7 4.3 7 6 C3.63279613 4.60667426 2.0140476 3.0210714 0 0 Z " fill="#B98C98" transform="translate(85,430)"/>
<path d="M0 0 C3.81684226 1.55500981 6.19195732 4.03595495 9 7 C2.29787234 5.06382979 2.29787234 5.06382979 0 2 C0 1.34 0 0.68 0 0 Z " fill="#D8736F" transform="translate(193,331)"/>
<path d="M0 0 C0.66 0.33 1.32 0.66 2 1 C1.01 4.3 0.02 7.6 -1 11 C-1.66 10.67 -2.32 10.34 -3 10 C-2.05066101 6.64566891 -1.10251165 3.30753495 0 0 Z " fill="#4681BD" transform="translate(18,174)"/>
<path d="M0 0 C3.63 0 7.26 0 11 0 C11 0.33 11 0.66 11 1 C7.37 1.66 3.74 2.32 0 3 C0 2.01 0 1.02 0 0 Z " fill="#3765A5" transform="translate(126,181)"/>
<path d="M0 0 C0.66 0.99 1.32 1.98 2 3 C0 6 0 6 -2.625 6.6875 C-3.800625 6.8421875 -3.800625 6.8421875 -5 7 C-3.35 4.69 -1.7 2.38 0 0 Z " fill="#76B494" transform="translate(410,142)"/>
<path d="M0 0 C0.33 0.66 0.66 1.32 1 2 C-0.125 5.0625 -0.125 5.0625 -2 8 C-4.6875 8.875 -4.6875 8.875 -7 9 C-6.02180976 7.68677212 -5.0424189 6.37443848 -4.0625 5.0625 C-3.51722656 4.33160156 -2.97195313 3.60070312 -2.41015625 2.84765625 C-1 1 -1 1 0 0 Z " fill="#85BF9F" transform="translate(431,117)"/>
<path d="M0 0 C0 3.34419152 -0.47519394 4.06840321 -2.375 6.6875 C-2.81585938 7.31011719 -3.25671875 7.93273437 -3.7109375 8.57421875 C-4.13632812 9.04472656 -4.56171875 9.51523438 -5 10 C-5.66 10 -6.32 10 -7 10 C-5.33248852 6.05860922 -2.77289351 3.2107188 0 0 Z " fill="#85BA98" transform="translate(439,107)"/>
<path d="M0 0 C1.32 0 2.64 0 4 0 C4 0.66 4 1.32 4 2 C4.78375 2.144375 5.5675 2.28875 6.375 2.4375 C9 3 9 3 11 4 C10.67 4.66 10.34 5.32 10 6 C8.70414084 5.57507874 7.4133956 5.13454118 6.125 4.6875 C5.40570313 4.44386719 4.68640625 4.20023438 3.9453125 3.94921875 C2 3 2 3 0 0 Z " fill="#2969B1" transform="translate(354,32)"/>
<path d="M0 0 C2.97 0 5.94 0 9 0 C9 0.33 9 0.66 9 1 C4.82262526 2.59138085 1.46839215 3.21278058 -3 3 C-2.01 2.67 -1.02 2.34 0 2 C0 1.34 0 0.68 0 0 Z " fill="#3F7EBE" transform="translate(196,12)"/>
<path d="M0 0 C1.32 0.33 2.64 0.66 4 1 C-0.75 5 -0.75 5 -3 5 C-3.33 4.01 -3.66 3.02 -4 2 C-2.68 2 -1.36 2 0 2 C0 1.34 0 0.68 0 0 Z " fill="#EBC758" transform="translate(397,440)"/>
<path d="M0 0 C0.66 0.99 1.32 1.98 2 3 C1.1875 4.9375 1.1875 4.9375 0 7 C-0.99 7.33 -1.98 7.66 -3 8 C-3 7.01 -3 6.02 -3 5 C-2.34 5 -1.68 5 -1 5 C-0.67 3.35 -0.34 1.7 0 0 Z " fill="#EDC452" transform="translate(404,432)"/>
<path d="M0 0 C0.33 0.66 0.66 1.32 1 2 C-1.3125 4.5 -1.3125 4.5 -4 7 C-4.99 7 -5.98 7 -7 7 C-4.78071806 4.09197539 -3.07030857 2.04687238 0 0 Z " fill="#81526B" transform="translate(99,420)"/>
<path d="M0 0 C0.33 0.66 0.66 1.32 1 2 C-0.65 4.31 -2.3 6.62 -4 9 C-4.33 8.01 -4.66 7.02 -5 6 C-4.34 6 -3.68 6 -3 6 C-3 4.68 -3 3.36 -3 2 C-2.01 1.34 -1.02 0.68 0 0 Z " fill="#ECC76C" transform="translate(454,379)"/>
<path d="M0 0 C2.31 1.98 4.62 3.96 7 6 C6.34 6.66 5.68 7.32 5 8 C3.5 6.625 3.5 6.625 2 5 C2 4.34 2 3.68 2 3 C1.34 3 0.68 3 0 3 C0 2.01 0 1.02 0 0 Z " fill="#406FAB" transform="translate(135,272)"/>
<path d="M0 0 C2.50298434 2.93828597 3.46930939 5.17902761 4 9 C3.67 8.34 3.34 7.68 3 7 C2.34 7 1.68 7 1 7 C0.87625 6.360625 0.7525 5.72125 0.625 5.0625 C0.315625 4.0415625 0.315625 4.0415625 0 3 C-0.66 2.67 -1.32 2.34 -2 2 C-1.34 2 -0.68 2 0 2 C0 1.34 0 0.68 0 0 Z " fill="#5E9B77" transform="translate(469,145)"/>
<path d="M0 0 C0.33 1.32 0.66 2.64 1 4 C-0.98 4.99 -0.98 4.99 -3 6 C-3 6.66 -3 7.32 -3 8 C-3.66 7.67 -4.32 7.34 -5 7 C-3.35 4.69 -1.7 2.38 0 0 Z " fill="#6099C7" transform="translate(59,96)"/>
<path d="M0 0 C3.71888239 0.50712033 6.73454239 1.11608215 10 3 C8.02 3.33 6.04 3.66 4 4 C3.67 3.01 3.34 2.02 3 1 C2.01 0.67 1.02 0.34 0 0 Z " fill="#78A1D3" transform="translate(320,17)"/>
<path d="M0 0 C1.32 0 2.64 0 4 0 C4 0.66 4 1.32 4 2 C5.65 2.33 7.3 2.66 9 3 C9 3.66 9 4.32 9 5 C5.22454612 3.90931332 2.52956528 3.0916909 0 0 Z " fill="#D16B61" transform="translate(124,459)"/>
<path d="M0 0 C1.875 0.3125 1.875 0.3125 4 1 C4.66 1.99 5.32 2.98 6 4 C4.35 4.33 2.7 4.66 1 5 C0.67 3.35 0.34 1.7 0 0 Z " fill="#2E64AB" transform="translate(178,317)"/>
<path d="M0 0 C1.875 1.1875 1.875 1.1875 2.875 3.1875 C0.895 3.1875 -1.085 3.1875 -3.125 3.1875 C-3.125 2.5275 -3.125 1.8675 -3.125 1.1875 C-3.785 0.8575 -4.445 0.5275 -5.125 0.1875 C-2.125 -0.8125 -2.125 -0.8125 0 0 Z " fill="#2D68AF" transform="translate(175.125,311.8125)"/>
<path d="M0 0 C2.5 2.3125 2.5 2.3125 5 5 C5 5.99 5 6.98 5 8 C2.5 6.25 2.5 6.25 0 4 C0 2.68 0 1.36 0 0 Z " fill="#4273B1" transform="translate(129,265)"/>
<path d="M0 0 C2.31 0.66 4.62 1.32 7 2 C7 3.32 7 4.64 7 6 C3.63279613 4.60667426 2.0140476 3.0210714 0 0 Z " fill="#125299" transform="translate(168,193)"/>
<path d="M0 0 C0.66 0.99 1.32 1.98 2 3 C1.67 3.99 1.34 4.98 1 6 C0.34 6 -0.32 6 -1 6 C-1.33 7.32 -1.66 8.64 -2 10 C-3 8 -3 8 -2.44140625 6.0546875 C-2.15136719 5.33539063 -1.86132812 4.61609375 -1.5625 3.875 C-1.27503906 3.15054688 -0.98757812 2.42609375 -0.69140625 1.6796875 C-0.46324219 1.12539062 -0.23507813 0.57109375 0 0 Z " fill="#82A8DB" transform="translate(19,168)"/>
<path d="M0 0 C0.66 0.33 1.32 0.66 2 1 C1.6875 2.9375 1.6875 2.9375 1 5 C0.01 5.33 -0.98 5.66 -2 6 C-2.33 4.68 -2.66 3.36 -3 2 C-2.01 1.34 -1.02 0.68 0 0 Z " fill="#4C89C6" transform="translate(100,56)"/>
</svg>
